<svg width="70" height="70" viewBox="0 0 70 70" fill="none" xmlns="http://www.w3.org/2000/svg">
<rect width="70" height="70" rx="35" fill="url(#paint0_linear_501_44)"/>
<path d="M30.0713 50.8807C28.9123 50.8101 27.5841 50.7298 26.2536 50.6446C25.9813 50.6275 25.8121 50.5058 25.7901 50.1784C25.7344 49.2252 25.5861 48.2721 25.6046 47.3214C25.6336 45.8181 25.7866 44.3184 25.8561 42.8175C25.9929 39.8401 26.2374 36.8663 26.0323 33.8779C25.9488 32.6607 26.0485 31.4324 26.0323 30.2103C26.0184 29.4556 25.9164 28.7033 25.8805 27.9486C25.8619 27.6212 25.8909 27.2925 25.892 26.9651C25.9002 25.7478 25.9117 24.5305 25.9083 23.3047C25.9083 22.4989 25.8723 21.6943 25.8712 20.8885C25.8676 20.7949 25.8819 20.7016 25.9132 20.6139C25.9445 20.5262 25.9921 20.446 26.0533 20.378C26.1146 20.3099 26.1881 20.2554 26.2697 20.2176C26.3513 20.1799 26.4392 20.1596 26.5283 20.1581C29.1824 19.9719 31.8399 19.8964 34.4847 20.2372C35.4605 20.3589 36.4839 20.5574 37.2268 21.3255C38.3858 22.5232 39.5447 23.715 40.2077 25.3485C40.9703 27.2426 41.5984 29.1525 41.5984 31.2377C41.5942 31.3573 41.6036 31.477 41.6263 31.5943C41.996 33.161 41.909 34.7276 41.6587 36.3003C41.6164 36.641 41.6117 36.9858 41.6448 37.3277C41.7723 39.3289 41.5173 41.2947 41.0815 43.229C40.9343 43.8802 40.5971 44.4962 40.2818 45.0914C39.7615 46.0762 39.2538 47.0792 38.6222 47.9836C37.957 48.9355 36.9753 49.5186 35.945 49.9751C35.4385 50.1991 34.9204 50.4036 34.3977 50.5837C33.0325 51.0499 31.6266 50.7882 30.0713 50.8807ZM31.6151 35.7233H31.4992C31.4559 38.6318 31.413 41.5398 31.3705 44.4475C31.3612 44.9989 31.4099 45.0561 31.9361 45.089C32.5345 45.1325 33.1329 45.0033 33.6664 44.7153C34.3618 44.333 35.0085 43.9204 35.2589 43.0403C35.7365 41.3856 36.0286 39.678 36.1293 37.9521C36.2822 35.0794 36.0528 32.231 35.6494 29.3899C35.4837 28.2188 35.0363 27.3412 34.0987 26.7313C33.8739 26.5795 33.6219 26.4776 33.3581 26.4319C32.8946 26.3698 32.4229 26.3808 31.9546 26.3576C31.5838 26.3406 31.396 26.5147 31.3948 26.9103C31.3948 28.029 31.3508 29.1488 31.3833 30.2663C31.4285 32.0873 31.5293 33.9047 31.6104 35.7233H31.6151Z" fill="white"/>
<path d="M51.4668 51C50.8873 50.9671 50.1224 50.9367 49.3574 50.8783C48.8996 50.8393 48.7084 50.5837 48.7119 50.1077C48.7188 48.9172 48.7293 47.7267 48.7328 46.5363C48.7328 44.8321 48.7084 43.1145 48.749 41.4043C48.7675 40.613 48.5172 39.9131 48.2854 39.1974C47.9551 38.17 47.6039 37.1499 47.2574 36.1274C46.9305 35.1621 46.5933 34.2005 46.2676 33.234C45.9419 32.2674 45.6395 31.3228 45.3207 30.3697C44.9939 29.3886 44.6474 28.4136 44.3321 27.4288C43.9995 26.3856 43.6901 25.3351 43.3771 24.2858C43.0515 23.1732 42.7478 22.0606 42.3827 20.9651C42.2529 20.5768 42.363 20.4052 42.6551 20.2627C42.7448 20.2173 42.8429 20.1932 42.9425 20.1921C44.3205 20.2299 45.6974 20.2932 47.0743 20.3078C47.8751 20.3175 48.1266 20.8385 48.3294 21.525C48.8533 23.2998 49.4026 25.0665 49.9775 26.825C50.5454 28.5694 51.1446 30.3028 51.7449 32.0337C51.7959 32.181 51.957 32.2845 52.0671 32.4086C52.1517 32.2869 52.2757 32.1847 52.3151 32.0508C52.7903 30.4318 53.2504 28.8092 53.7175 27.1878C54.144 25.7076 54.5682 24.2274 55.0051 22.7508C55.1859 22.1422 55.4061 21.5445 55.5904 20.9359C55.6183 20.8034 55.6901 20.6857 55.7931 20.6039C55.8962 20.522 56.0235 20.4813 56.1525 20.4892C57.5433 20.4762 58.934 20.4672 60.3248 20.4624C60.4766 20.4624 60.6725 20.4758 60.771 20.5695C60.8869 20.6839 61.0329 20.9262 60.9935 21.0564C60.5438 22.5281 60.0663 23.99 59.5865 25.4532C59.1809 26.7057 58.7753 27.9607 58.3661 29.2109C57.957 30.461 57.5178 31.7026 57.0994 32.9515C56.7795 33.9047 56.4701 34.8627 56.1548 35.8182C55.8396 36.7738 55.4757 37.7147 55.2218 38.6873C54.9286 39.8182 54.5844 40.9697 54.5265 42.1261C54.4175 44.3294 54.4975 46.5436 54.4963 48.7529C54.4963 49.1254 54.4824 49.4991 54.472 49.8716C54.4523 50.5885 54.3005 50.7724 53.6086 50.8454C52.963 50.9026 52.3093 50.9379 51.4668 51Z" fill="white"/>
<path d="M16.2409 44.5359C16.1752 46.4462 16.1088 48.3565 16.0416 50.2668C16.0207 50.8535 15.9651 50.8912 15.4169 50.8936C13.938 50.8936 12.4592 50.9168 10.9803 50.9241C10.3939 50.9241 10.2849 50.817 10.2849 50.1937C10.2919 48.4323 10.2537 46.6636 10.3429 44.912C10.4287 43.2249 10.3 41.5523 10.2629 39.8725C10.2409 38.8743 10.2247 37.8908 10.0532 36.8938C9.91524 36.0953 10.0844 35.2371 10.1262 34.4057C10.1691 33.5427 10.2606 32.6809 10.2652 31.8178C10.2792 28.4728 10.2455 25.1229 10.2745 21.7839C10.2896 20.0274 10.5643 20.0797 11.8391 20.0663C13.486 20.0444 15.1329 20.0943 16.7798 20.0882C18.1393 20.0882 19.5011 19.9933 20.8594 20.0444C21.4922 20.0675 22.1262 20.3086 22.7381 20.5191C22.8749 20.5666 23.0394 20.9379 22.9931 21.0973C22.6755 22.2112 22.7984 23.3517 22.752 24.4814C22.7161 25.3639 22.5318 25.5367 21.6858 25.5233C19.9948 25.4953 18.3027 25.4978 16.6118 25.4686C16.2282 25.4625 16.0717 25.5903 16.0891 26.009C16.1354 27.1265 16.1795 28.2464 16.1818 29.365C16.1818 30.1843 16.1065 31.0023 16.0879 31.8227C16.0636 32.9097 16.096 32.9182 17.1403 32.8623C18.3468 32.7977 19.5556 32.7576 20.7632 32.7186C21.3497 32.7004 21.5861 32.9353 21.5815 33.5391C21.5722 34.5518 21.5363 35.5646 21.5212 36.5822C21.5212 36.8257 21.5502 37.057 21.5641 37.2931C21.5988 37.8689 21.3682 38.1781 20.8293 38.1854C19.6089 38.2 18.3896 38.2024 17.1704 38.1732C16.3881 38.1537 16.3336 38.2146 16.3429 39.0362C16.3638 40.8719 16.3499 42.7075 16.3499 44.5432L16.2409 44.5359Z" fill="white"/>
<defs>
<linearGradient id="paint0_linear_501_44" x1="0" y1="35" x2="70" y2="35" gradientUnits="userSpaceOnUse">
<stop stop-color="#C11C18"/>
<stop offset="1" stop-color="#1E612E"/>
</linearGradient>
</defs>
</svg>
