<svg width="94" height="26" viewBox="0 0 94 26" fill="none" xmlns="http://www.w3.org/2000/svg">
<path d="M15.4115 0.00853448C16.3633 0.00853448 17.315 -0.0135532 18.2668 0.0133383C20.3509 0.070963 22.0902 0.824886 23.2754 2.61509C23.8467 3.49074 24.2584 4.46071 24.4912 5.48C24.8987 7.13747 25.0286 8.85104 24.8754 10.551C24.7746 11.6074 24.5796 12.6927 24.182 13.6656C23.7844 14.6385 23.0862 15.5125 22.4993 16.4143C22.3342 16.6688 22.2295 16.8945 22.3514 17.1961C22.6943 18.0441 22.992 18.9114 23.3666 19.744C23.8468 20.813 24.3798 21.8569 24.9081 22.9067C25.1558 23.3984 25.444 23.8671 25.7177 24.3473C25.9203 24.6998 25.8521 24.8275 25.4526 24.8726C25.0089 24.9226 24.5671 24.9927 24.1244 25.0513C23.9496 25.0743 23.77 25.1262 23.599 25.106C22.8057 25.01 22.0163 24.888 21.223 24.7948C20.6736 24.7295 20.4978 24.3338 20.3269 23.894C19.8957 22.7914 19.4443 21.6975 19.0015 20.6007C18.8834 20.3068 18.771 20.0101 18.6519 19.7172C18.4954 19.333 18.3417 19.2754 17.826 19.3637C17.4822 19.4233 17.4034 19.6518 17.3996 19.9505C17.3842 21.3374 17.3621 22.7242 17.3458 24.112C17.3458 24.5067 17.2411 24.6143 16.8444 24.6181C15.9032 24.6277 14.962 24.6258 14.0208 24.6508C13.6446 24.6701 13.2698 24.7105 12.8981 24.7718C12.4448 24.8342 12.2306 24.6911 12.2393 24.2349C12.2575 23.2582 12.3075 22.2824 12.3478 21.3057C12.4285 19.3416 12.5447 17.3785 12.5802 15.4135C12.6033 14.1208 12.4842 12.8262 12.4746 11.5316C12.465 10.1668 12.4995 8.80111 12.5322 7.43636C12.5552 6.47595 12.6234 5.51074 12.6407 4.54744C12.6628 3.3354 12.659 2.1224 12.6522 0.909401C12.6522 0.353323 12.6666 0.285134 13.2064 0.141072C13.5144 0.0696611 13.828 0.0256312 14.1438 0.00949583C14.3531 -0.00683118 14.5663 0.0277427 14.7786 0.0325448C14.9908 0.0373468 15.2021 0.0325448 15.4144 0.0325448L15.4115 0.00853448ZM17.3765 11.9176H17.3141C17.3141 12.1654 17.3141 12.4123 17.3141 12.66C17.3064 13.2132 17.291 13.7664 17.2882 14.3196C17.2882 14.5741 17.3544 14.7393 17.6723 14.5924C17.9374 14.4685 18.2399 14.4128 18.4829 14.2582C18.813 14.0633 19.1113 13.8191 19.3674 13.534C19.6181 13.2334 19.7795 12.8569 19.9687 12.5073C20.1093 12.2782 20.2236 12.034 20.3096 11.7793C20.4508 11.2607 20.5545 10.7296 20.6611 10.2014C20.9031 8.99895 20.7754 7.81284 20.4767 6.63826C20.4089 6.34075 20.3104 6.05107 20.1828 5.77389C19.7718 4.93929 19.0438 4.56761 18.1564 4.43603C17.5801 4.35056 17.4697 4.43603 17.4601 5.01996C17.437 6.36454 17.4015 7.71392 17.3852 9.06042C17.3688 10.0141 17.3765 10.9659 17.3765 11.9176Z" fill="white"/>
<path d="M67.6949 24.8968C66.7345 24.8411 65.6339 24.7777 64.5313 24.7105C64.3056 24.697 64.1654 24.601 64.1472 24.3426C64.1011 23.5906 63.9781 22.8386 63.9935 22.0886C64.0175 20.9024 64.1443 19.7192 64.2019 18.535C64.3152 16.1859 64.5179 13.8396 64.3479 11.4818C64.2788 10.5214 64.3613 9.5523 64.3479 8.58805C64.3364 7.99259 64.2519 7.39905 64.2221 6.8036C64.2067 6.54525 64.2307 6.28594 64.2317 6.02759C64.2384 5.06717 64.248 4.10676 64.2451 3.13963C64.2451 2.50383 64.2154 1.869 64.2144 1.23321C64.2114 1.1594 64.2233 1.08575 64.2492 1.01658C64.2751 0.947407 64.3146 0.884115 64.3653 0.830427C64.4161 0.776739 64.477 0.733738 64.5446 0.703948C64.6122 0.674159 64.6851 0.658183 64.759 0.656962C66.9583 0.510019 69.1605 0.450473 71.3522 0.719388C72.1609 0.81543 73.0089 0.971977 73.6245 1.578C74.5849 2.52304 75.5453 3.46329 76.0947 4.75216C76.7266 6.24656 77.2472 7.75345 77.2472 9.39863C77.2437 9.49301 77.2515 9.58747 77.2702 9.68003C77.5766 10.9161 77.5046 12.1521 77.2971 13.393C77.2621 13.6618 77.2582 13.9338 77.2856 14.2036C77.3913 15.7825 77.18 17.3336 76.8188 18.8597C76.6969 19.3735 76.4174 19.8594 76.1562 20.3291C75.7249 21.1061 75.3043 21.8974 74.7809 22.611C74.2296 23.3621 73.4161 23.8221 72.5623 24.1823C72.1426 24.359 71.7133 24.5203 71.2802 24.6625C70.1488 25.0303 68.9838 24.8238 67.6949 24.8968ZM68.9742 12.9377H68.8782C68.8423 15.2325 68.8068 17.5269 68.7716 19.821C68.7639 20.2561 68.8042 20.3012 69.2402 20.3272C69.7362 20.3615 70.232 20.2596 70.6741 20.0323C71.2504 19.7307 71.7863 19.4052 71.9937 18.7108C72.3895 17.4052 72.6316 16.0579 72.715 14.6963C72.8418 12.4297 72.6516 10.1823 72.3174 7.94073C72.1801 7.01681 71.8093 6.32435 71.0324 5.84319C70.8461 5.72336 70.6372 5.64295 70.4187 5.60693C70.0345 5.55794 69.6436 5.56659 69.2556 5.54834C68.9483 5.53489 68.7927 5.67223 68.7917 5.98437C68.7917 6.86699 68.7552 7.75057 68.7821 8.63222C68.8196 10.069 68.9031 11.5029 68.9704 12.9377H68.9742Z" fill="white"/>
<path d="M52.0023 24.8985C51.0284 24.8409 49.9249 24.7775 48.8224 24.7064C48.5967 24.693 48.4613 24.5912 48.4449 24.3347C48.3873 23.3743 48.2528 22.4072 48.2644 21.4448C48.274 20.4595 48.4497 19.4779 48.4997 18.4916C48.6188 16.1539 48.8156 13.8201 48.6466 11.4738C48.5784 10.5259 48.661 9.56743 48.6466 8.6147C48.6351 8.00772 48.5506 7.4017 48.5198 6.79472C48.5045 6.53733 48.5294 6.27802 48.5314 6.01871C48.5362 5.04485 48.5429 4.07003 48.54 3.09618C48.54 2.47191 48.5122 1.84764 48.5131 1.2253C48.51 1.15113 48.5219 1.07711 48.548 1.00763C48.5741 0.938148 48.6139 0.874632 48.6651 0.820863C48.7163 0.767095 48.7777 0.724174 48.8458 0.694657C48.9139 0.665139 48.9873 0.649628 49.0615 0.649048C51.2484 0.507868 53.4381 0.434876 55.6182 0.708593C56.4528 0.813278 57.3249 0.965985 57.954 1.59505C58.8884 2.5305 59.8393 3.45057 60.378 4.71735C61.0186 6.22136 61.5401 7.73785 61.5497 9.39648C61.5497 9.80465 61.6756 10.2119 61.6996 10.622C61.7313 11.1684 61.7428 11.7197 61.7226 12.2672C61.6976 12.9394 61.568 13.606 61.5958 14.2706C61.6493 15.8138 61.4877 17.3569 61.1156 18.8556C60.9927 19.3694 60.7142 19.8563 60.4539 20.326C60.0227 21.1029 59.6011 21.8953 59.0767 22.6079C58.5244 23.357 57.7119 23.8171 56.8572 24.1763C56.4375 24.353 56.0082 24.5134 55.575 24.6565C54.4408 25.031 53.2796 24.8236 52.0023 24.8985ZM53.27 12.9481H53.2355C53.2355 13.0441 53.2355 13.1402 53.2355 13.2304C53.1778 15.4298 53.1202 17.6298 53.0626 19.8304C53.052 20.2472 53.0972 20.3 53.5063 20.324C54.0137 20.3621 54.5217 20.2597 54.9748 20.0282C55.551 19.7276 56.0831 19.3915 56.2886 18.7C56.6874 17.3827 56.9295 16.023 57.0099 14.649C57.1309 12.4064 56.9417 10.1859 56.6132 7.96547C56.4749 7.02714 56.1032 6.32508 55.3167 5.83623C55.1298 5.71719 54.9201 5.63866 54.7011 5.60573C54.3169 5.55675 53.926 5.56348 53.538 5.54715C53.2499 5.53562 53.0885 5.65952 53.0866 5.9582C53.0789 6.82258 53.0434 7.6783 53.0703 8.53595C53.1164 10.0083 53.2018 11.4738 53.27 12.9481V12.9481Z" fill="white"/>
<path d="M40.1547 8.69694C40.2267 10.4622 40.3151 12.2265 40.3669 13.9926C40.4266 15.735 40.2633 17.4779 39.881 19.1789C39.4766 20.9345 38.6853 22.4875 37.2562 23.6544C36.6261 24.1682 35.8857 24.4746 35.1231 24.7108C34.4767 24.9029 33.7968 25.145 33.1408 25.12C32.3456 25.0912 31.5456 24.8559 30.7743 24.6215C29.0101 24.0866 28.1006 22.7084 27.4216 21.1122C26.8837 19.8483 26.8127 18.5191 26.7906 17.1745C26.7637 15.5994 26.7041 14.0243 26.6849 12.4483C26.6763 11.7914 26.7637 11.1325 26.7579 10.4747C26.7349 7.919 26.683 5.36431 26.6619 2.80769C26.67 2.23208 26.7146 1.65757 26.7954 1.0876C26.8434 0.685183 27.0835 0.534396 27.483 0.557446C28.7059 0.627236 29.9279 0.694465 31.1489 0.759133C31.7424 0.789866 31.8049 0.855175 31.7751 1.46504C31.6666 3.66534 31.5292 5.86372 31.4639 8.06499C31.4322 9.12144 31.56 10.1779 31.5696 11.2391C31.5859 13.0169 31.5571 14.7927 31.5638 16.5723C31.5638 17.4252 31.6647 18.2761 32.0872 19.0319C32.3114 19.4142 32.5918 19.7606 32.919 20.0596C33.3694 20.485 34.2991 20.1767 34.7149 19.7714C35.2345 19.2653 35.4448 18.6343 35.4948 17.9351C35.514 17.6768 35.5121 17.4175 35.514 17.1582C35.5332 15.0165 35.5841 12.8747 35.562 10.733C35.5399 8.59129 35.4477 6.42557 35.3824 4.27232C35.3517 3.24852 35.3123 2.22568 35.2768 1.199C35.2662 0.916642 35.3853 0.767777 35.683 0.738965C36.979 0.614634 38.2826 0.590552 39.5823 0.666934C40.1749 0.699588 40.2815 0.889751 40.2709 1.48713C40.2325 3.57122 40.2114 5.65531 40.1854 7.73845C40.1854 8.05634 40.1854 8.37424 40.1854 8.69214L40.1547 8.69694Z" fill="white"/>
<path d="M85.4247 24.9907C84.9444 24.9647 84.3106 24.9407 83.6767 24.8946C83.2973 24.8639 83.1389 24.6622 83.1418 24.2867C83.1475 23.3474 83.1562 22.4081 83.159 21.4688C83.159 20.1243 83.1389 18.7691 83.1725 17.4197C83.1879 16.7955 82.9804 16.2432 82.7883 15.6785C82.5146 14.8679 82.2236 14.0631 81.9364 13.2563C81.6656 12.4947 81.3861 11.736 81.1162 10.9734C80.8464 10.2109 80.5957 9.4656 80.3316 8.7136C80.0608 7.93951 79.7736 7.17022 79.5124 6.39324C79.2367 5.57017 78.9803 4.74133 78.721 3.91346C78.4511 3.03564 78.1995 2.15783 77.8969 1.29346C77.7894 0.987084 77.8806 0.851667 78.1226 0.739299C78.197 0.703464 78.2783 0.684444 78.3608 0.683594C79.5028 0.713367 80.6437 0.763309 81.7847 0.774834C82.4483 0.782517 82.6567 1.19357 82.8248 1.73525C83.2589 3.13553 83.7142 4.52941 84.1905 5.91688C84.6611 7.29315 85.1577 8.66077 85.6552 10.0265C85.6974 10.1427 85.8309 10.2243 85.9221 10.3223C85.9923 10.2262 86.095 10.1456 86.1277 10.0399C86.5214 8.76258 86.9027 7.48235 87.2898 6.20308C87.6432 5.03522 87.9947 3.86736 88.3568 2.70238C88.5066 2.22218 88.6891 1.75061 88.8418 1.27041C88.8649 1.16589 88.9245 1.07302 89.0098 1.00843C89.0952 0.943842 89.2007 0.91176 89.3076 0.917934C90.4601 0.90769 91.6126 0.900647 92.7651 0.896805C92.8909 0.896805 93.0532 0.90737 93.1348 0.981322C93.2309 1.0716 93.3519 1.26272 93.3192 1.36549C92.9466 2.52662 92.5509 3.68008 92.1533 4.83449C91.8172 5.82276 91.481 6.81294 91.142 7.79928C90.803 8.78563 90.439 9.76525 90.0923 10.7506C89.8272 11.5026 89.5708 12.2585 89.3095 13.0124C89.0483 13.7663 88.7467 14.5087 88.5364 15.2761C88.2934 16.1683 88.0082 17.0769 87.9601 17.9893C87.8699 19.7276 87.9361 21.4746 87.9352 23.2177C87.9352 23.5116 87.9236 23.8065 87.915 24.1004C87.8987 24.666 87.7729 24.8111 87.1995 24.8687C86.6645 24.9138 86.1229 24.9417 85.4247 24.9907Z" fill="white"/>
<path d="M5.17169 19.8449C5.11726 21.3521 5.0622 22.8593 5.0065 24.3666C4.98921 24.8295 4.94311 24.8592 4.48883 24.8612C3.26335 24.8612 2.03786 24.8794 0.812378 24.8852C0.326409 24.8852 0.236131 24.8007 0.236131 24.3089C0.241893 22.9192 0.2102 21.5237 0.284151 20.1417C0.355222 18.8106 0.248616 17.491 0.217883 16.1656C0.199635 15.3781 0.186189 14.602 0.0440484 13.8155C-0.0702406 13.1854 0.0699792 12.5083 0.104554 11.8524C0.140089 11.1715 0.215962 10.4915 0.219804 9.81055C0.231329 7.17134 0.203476 4.52829 0.227487 1.89388C0.239972 0.508003 0.46759 0.549303 1.52404 0.538738C2.88879 0.521451 4.25353 0.560827 5.61828 0.556025C6.74484 0.556025 7.87333 0.481111 8.99893 0.521448C9.52331 0.539696 10.0487 0.729857 10.5558 0.896008C10.6691 0.933465 10.8055 1.22639 10.767 1.3522C10.5039 2.23098 10.6057 3.13089 10.5673 4.02215C10.5375 4.71845 10.3848 4.85483 9.6837 4.84426C8.28246 4.82217 6.88026 4.82409 5.47902 4.80104C5.16112 4.79624 5.03147 4.89708 5.04587 5.22747C5.08429 6.10912 5.12079 6.9927 5.12271 7.87532C5.12271 8.52168 5.06028 9.16708 5.04491 9.81439C5.02474 10.672 5.05164 10.6788 5.91697 10.6346C6.91676 10.5837 7.91847 10.552 8.91921 10.5213C9.40518 10.5069 9.60111 10.6922 9.59727 11.1686C9.58958 11.9676 9.55981 12.7667 9.54732 13.5696C9.54732 13.7617 9.57133 13.9442 9.58286 14.1305C9.61167 14.5848 9.42055 14.8287 8.97396 14.8345C7.96264 14.846 6.95229 14.8479 5.94194 14.8249C5.29366 14.8095 5.24852 14.8575 5.2562 15.5058C5.27349 16.9541 5.26197 18.4024 5.26197 19.8507L5.17169 19.8449Z" fill="white"/>
<path d="M44.3569 21.3181C43.1343 21.297 41.7821 20.0696 41.808 19.0054C41.8368 17.7905 42.9951 16.3384 43.9363 16.3566C45.7754 16.3922 46.7378 17.2556 46.7752 18.6232C46.8213 20.1685 45.7073 21.3421 44.3569 21.3181Z" fill="white"/>
<path d="M44.5203 9.36745C44.0353 9.24644 43.5311 9.17056 43.0663 8.99289C42.2518 8.68268 42.0098 7.96909 41.9791 7.17963C41.9349 6.19809 42.2144 5.31355 42.9885 4.67392C43.1988 4.50104 43.5522 4.47415 43.8471 4.43669C44.9929 4.29455 45.9475 4.99757 46.4095 6.0473C46.9531 7.28239 46.3269 8.65578 45.2454 9.17729C45.0342 9.28005 44.7835 9.30118 44.5203 9.36745Z" fill="white"/>
</svg>
