<svg width="152" height="42" viewBox="0 0 152 42" fill="none" xmlns="http://www.w3.org/2000/svg">
<rect x="0.400391" width="151.2" height="42" rx="21" fill="url(#paint0_linear_301_328)"/>
<path d="M44.7496 8.45336C45.7014 8.45336 46.6532 8.43127 47.6049 8.45816C49.689 8.51579 51.4283 9.26971 52.6135 11.0599C53.1848 11.9356 53.5965 12.9055 53.8294 13.9248C54.2369 15.5823 54.3667 17.2959 54.2135 18.9958C54.1127 20.0523 53.9177 21.1375 53.5201 22.1104C53.1225 23.0833 52.4243 23.9573 51.8375 24.8591C51.6723 25.1136 51.5676 25.3393 51.6896 25.6409C52.0324 26.4889 52.3302 27.3562 52.7047 28.1889C53.1849 29.2578 53.718 30.3018 54.2462 31.3515C54.494 31.8432 54.7821 32.3119 55.0558 32.7921C55.2585 33.1446 55.1903 33.2723 54.7907 33.3175C54.347 33.3674 53.9052 33.4375 53.4625 33.4961C53.2877 33.5192 53.1081 33.571 52.9372 33.5508C52.1439 33.4548 51.3544 33.3328 50.5611 33.2397C50.0117 33.1744 49.836 32.7787 49.665 32.3388C49.2338 31.2363 48.7824 30.1423 48.3397 29.0456C48.2215 28.7517 48.1092 28.4549 47.9901 28.162C47.8335 27.7778 47.6799 27.7202 47.1641 27.8085C46.8203 27.8681 46.7415 28.0967 46.7377 28.3954C46.7223 29.7822 46.7002 31.169 46.6839 32.5568C46.6839 32.9516 46.5792 33.0591 46.1826 33.063C45.2414 33.0726 44.3002 33.0706 43.359 33.0956C42.9828 33.1149 42.6079 33.1553 42.2362 33.2166C41.7829 33.2791 41.5688 33.1359 41.5774 32.6798C41.5956 31.703 41.6456 30.7272 41.6859 29.7505C41.7666 27.7865 41.8828 25.8234 41.9183 23.8584C41.9414 22.5657 41.8223 21.271 41.8127 19.9764C41.8031 18.6116 41.8377 17.2459 41.8703 15.8812C41.8934 14.9208 41.9616 13.9556 41.9789 12.9923C42.0009 11.7802 41.9971 10.5672 41.9904 9.35423C41.9904 8.79815 42.0048 8.72996 42.5445 8.5859C42.8525 8.51449 43.1662 8.47046 43.4819 8.45432C43.6913 8.43799 43.9045 8.47257 44.1167 8.47737C44.329 8.48217 44.5403 8.47737 44.7525 8.47737L44.7496 8.45336ZM46.7146 20.3625H46.6522C46.6522 20.6103 46.6522 20.8571 46.6522 21.1049C46.6445 21.6581 46.6292 22.2113 46.6263 22.7645C46.6263 23.019 46.6926 23.1842 47.0105 23.0372C47.2755 22.9133 47.5781 22.8576 47.821 22.703C48.1511 22.5082 48.4494 22.2639 48.7056 21.9788C48.9562 21.6782 49.1176 21.3018 49.3068 20.9522C49.4474 20.7231 49.5618 20.4789 49.6477 20.2242C49.7889 19.7055 49.8926 19.1744 49.9993 18.6462C50.2413 17.4438 50.1135 16.2577 49.8149 15.0831C49.747 14.7856 49.6486 14.4959 49.521 14.2187C49.1099 13.3841 48.3819 13.0124 47.4945 12.8809C46.9183 12.7954 46.8078 12.8809 46.7982 13.4648C46.7752 14.8094 46.7396 16.1587 46.7233 17.5052C46.707 18.4589 46.7146 19.4107 46.7146 20.3625Z" fill="white"/>
<path d="M97.0331 33.3416C96.0727 33.2859 94.972 33.2225 93.8695 33.1553C93.6438 33.1419 93.5036 33.0458 93.4853 32.7875C93.4392 32.0355 93.3163 31.2835 93.3316 30.5334C93.3557 29.3473 93.4824 28.164 93.5401 26.9799C93.6534 24.6307 93.856 22.2844 93.686 19.9266C93.6169 18.9662 93.6995 17.9971 93.686 17.0329C93.6745 16.4374 93.59 15.8439 93.5602 15.2484C93.5449 14.9901 93.5689 14.7308 93.5698 14.4724C93.5765 13.512 93.5862 12.5516 93.5833 11.5845C93.5833 10.9487 93.5535 10.3138 93.5525 9.67803C93.5496 9.60422 93.5614 9.53057 93.5873 9.4614C93.6133 9.39223 93.6527 9.32894 93.7035 9.27525C93.7542 9.22156 93.8152 9.17856 93.8828 9.14877C93.9504 9.11898 94.0232 9.10301 94.0971 9.10179C96.2964 8.95484 98.4987 8.8953 100.69 9.16421C101.499 9.26025 102.347 9.4168 102.963 10.0228C103.923 10.9679 104.883 11.9081 105.433 13.197C106.065 14.6914 106.585 16.1983 106.585 17.8435C106.582 17.9378 106.59 18.0323 106.608 18.1249C106.915 19.3609 106.843 20.597 106.635 21.8378C106.6 22.1067 106.596 22.3787 106.624 22.6484C106.729 24.2273 106.518 25.7784 106.157 27.3045C106.035 27.8183 105.756 28.3043 105.494 28.7739C105.063 29.5509 104.642 30.3423 104.119 31.0558C103.568 31.8069 102.754 32.2669 101.9 32.6271C101.481 32.8038 101.051 32.9651 100.618 33.1073C99.4869 33.4751 98.3219 33.2686 97.0331 33.3416ZM98.3123 21.3826H98.2163C98.1804 23.6773 98.1449 25.9717 98.1097 28.2658C98.102 28.7009 98.1423 28.7461 98.5784 28.772C99.0743 28.8063 99.5701 28.7044 100.012 28.4771C100.589 28.1756 101.124 27.85 101.332 27.1556C101.728 25.85 101.97 24.5028 102.053 23.1411C102.18 20.8745 101.99 18.6272 101.656 16.3855C101.518 15.4616 101.147 14.7692 100.37 14.288C100.184 14.1682 99.9753 14.0878 99.7568 14.0517C99.3726 14.0028 98.9817 14.0114 98.5937 13.9932C98.2864 13.9797 98.1308 14.1171 98.1299 14.4292C98.1299 15.3118 98.0934 16.1954 98.1203 17.077C98.1577 18.5138 98.2413 19.9477 98.3085 21.3826H98.3123Z" fill="white"/>
<path d="M81.3404 33.3433C80.3666 33.2857 79.2631 33.2223 78.1605 33.1512C77.9348 33.1378 77.7994 33.036 77.7831 32.7795C77.7254 31.8191 77.591 30.852 77.6025 29.8897C77.6121 28.9043 77.7879 27.9227 77.8378 26.9364C77.9569 24.5988 78.1538 22.265 77.9847 19.9187C77.9166 18.9707 77.9992 18.0123 77.9847 17.0595C77.9732 16.4525 77.8887 15.8465 77.858 15.2395C77.8426 14.9822 77.8676 14.7228 77.8695 14.4635C77.8743 13.4897 77.881 12.5149 77.8781 11.541C77.8781 10.9167 77.8503 10.2925 77.8513 9.67012C77.8482 9.59596 77.86 9.52193 77.8861 9.45245C77.9122 9.38297 77.9521 9.31946 78.0032 9.26569C78.0544 9.21192 78.1159 9.169 78.184 9.13948C78.2521 9.10996 78.3254 9.09445 78.3996 9.09387C80.5865 8.95269 82.7762 8.8797 84.9564 9.15342C85.791 9.2581 86.663 9.41081 87.2921 10.0399C88.2266 10.9753 89.1774 11.8954 89.7162 13.1622C90.3568 14.6662 90.8783 16.1827 90.8879 17.8413C90.8879 18.2495 91.0137 18.6567 91.0377 19.0668C91.0694 19.6133 91.0809 20.1645 91.0608 20.712C91.0358 21.3843 90.9061 22.0508 90.934 22.7154C90.9875 24.2586 90.8258 25.8018 90.4538 27.3004C90.3308 27.8142 90.0523 28.3011 89.792 28.7708C89.3608 29.5478 88.9392 30.3401 88.4148 31.0527C87.8626 31.8018 87.0501 32.2619 86.1953 32.6211C85.7756 32.7978 85.3463 32.9582 84.9132 33.1013C83.7789 33.4758 82.6178 33.2684 81.3404 33.3433ZM82.6082 21.3929H82.5736C82.5736 21.4889 82.5736 21.585 82.5736 21.6753C82.516 23.8746 82.4583 26.0746 82.4007 28.2752C82.3902 28.692 82.4353 28.7449 82.8444 28.7689C83.3518 28.8069 83.8598 28.7046 84.3129 28.4731C84.8891 28.1725 85.4212 27.8363 85.6267 27.1448C86.0256 25.8275 86.2677 24.4678 86.348 23.0938C86.469 20.8512 86.2798 18.6308 85.9514 16.4103C85.8131 15.472 85.4414 14.7699 84.6548 14.2811C84.468 14.162 84.2583 14.0835 84.0392 14.0506C83.655 14.0016 83.2641 14.0083 82.8761 13.992C82.588 13.9804 82.4267 14.1043 82.4247 14.403C82.417 15.2674 82.3815 16.1231 82.4084 16.9808C82.4545 18.4531 82.54 19.9187 82.6082 21.3929V21.3929Z" fill="white"/>
<path d="M69.4928 17.1418C69.5649 18.907 69.6532 20.6713 69.7051 22.4375C69.7647 24.1799 69.6014 25.9227 69.2191 27.6237C68.8148 29.3793 68.0234 30.9323 66.5943 32.0992C65.9643 32.613 65.2238 32.9194 64.4612 33.1557C63.8149 33.3478 63.1349 33.5898 62.4789 33.5648C61.6837 33.536 60.8837 33.3007 60.1125 33.0664C58.3482 32.5314 57.4387 31.1532 56.7597 29.557C56.2219 28.2931 56.1508 26.9639 56.1287 25.6193C56.1018 24.0442 56.0423 22.4692 56.0231 20.8931C56.0144 20.2362 56.1018 19.5774 56.096 18.9195C56.073 16.3638 56.0211 13.8091 56 11.2525C56.0082 10.6769 56.0527 10.1024 56.1335 9.53242C56.1815 9.13001 56.4216 8.97922 56.8212 9.00227C58.0441 9.07206 59.266 9.13929 60.487 9.20396C61.0806 9.23469 61.143 9.3 61.1132 9.90986C61.0047 12.1102 60.8674 14.3085 60.8021 16.5098C60.7704 17.5663 60.8981 18.6227 60.9077 19.684C60.924 21.4617 60.8952 23.2375 60.9019 25.0171C60.9019 25.87 61.0028 26.7209 61.4254 27.4768C61.6496 27.859 61.9299 28.2054 62.2571 28.5044C62.7075 28.9299 63.6372 28.6216 64.0531 28.2163C64.5726 27.7101 64.783 27.0791 64.8329 26.38C64.8521 26.1216 64.8502 25.8623 64.8521 25.603C64.8713 23.4613 64.9222 21.3196 64.9001 19.1778C64.878 17.0361 64.7859 14.8704 64.7205 12.7171C64.6898 11.6933 64.6504 10.6705 64.6149 9.64383C64.6043 9.36147 64.7234 9.2126 65.0212 9.18379C66.3171 9.05946 67.6208 9.03538 68.9204 9.11176C69.513 9.14441 69.6196 9.33457 69.609 9.93195C69.5706 12.016 69.5495 14.1001 69.5236 16.1833C69.5236 16.5012 69.5236 16.8191 69.5236 17.137L69.4928 17.1418Z" fill="white"/>
<path d="M114.763 33.4355C114.283 33.4096 113.649 33.3855 113.015 33.3394C112.635 33.3087 112.477 33.107 112.48 32.7315C112.486 31.7922 112.494 30.8529 112.497 29.9137C112.497 28.5691 112.477 27.2139 112.511 25.8646C112.526 25.2403 112.319 24.6881 112.126 24.1233C111.853 23.3127 111.562 22.5079 111.275 21.7012C111.004 20.9396 110.724 20.1808 110.454 19.4183C110.185 18.6557 109.934 17.9104 109.67 17.1584C109.399 16.3843 109.112 15.615 108.85 14.8381C108.575 14.015 108.318 13.1862 108.059 12.3583C107.789 11.4805 107.538 10.6027 107.235 9.73828C107.128 9.43191 107.219 9.29649 107.461 9.18412C107.535 9.14829 107.616 9.12927 107.699 9.12842C108.841 9.15819 109.982 9.20813 111.123 9.21966C111.786 9.22734 111.995 9.6384 112.163 10.1801C112.597 11.5804 113.052 12.9742 113.529 14.3617C113.999 15.738 114.496 17.1056 114.993 18.4713C115.036 18.5875 115.169 18.6692 115.26 18.7671C115.33 18.6711 115.433 18.5904 115.466 18.4848C115.86 17.2074 116.241 15.9272 116.628 14.6479C116.981 13.48 117.333 12.3122 117.695 11.1472C117.845 10.667 118.027 10.1954 118.18 9.71523C118.203 9.61072 118.263 9.51784 118.348 9.45325C118.433 9.38867 118.539 9.35658 118.646 9.36276C119.798 9.35251 120.951 9.34547 122.103 9.34163C122.229 9.34163 122.391 9.35219 122.473 9.42615C122.569 9.51642 122.69 9.70755 122.657 9.81031C122.285 10.9714 121.889 12.1249 121.491 13.2793C121.155 14.2676 120.819 15.2578 120.48 16.2441C120.141 17.2305 119.777 18.2101 119.43 19.1955C119.165 19.9475 118.909 20.7033 118.648 21.4572C118.386 22.2112 118.085 22.9536 117.875 23.7209C117.632 24.6131 117.346 25.5217 117.298 26.4341C117.208 28.1724 117.274 29.9194 117.273 31.6626C117.273 31.9565 117.262 32.2513 117.253 32.5452C117.237 33.1109 117.111 33.2559 116.538 33.3135C116.003 33.3586 115.461 33.3865 114.763 33.4355Z" fill="white"/>
<path d="M34.5098 28.2898C34.4554 29.797 34.4003 31.3042 34.3446 32.8114C34.3273 33.2743 34.2812 33.3041 33.827 33.306C32.6015 33.306 31.376 33.3242 30.1505 33.33C29.6645 33.33 29.5743 33.2455 29.5743 32.7538C29.58 31.364 29.5483 29.9686 29.6223 28.5865C29.6934 27.2554 29.5868 25.9358 29.556 24.6104C29.5378 23.8229 29.5243 23.0469 29.3822 22.2603C29.2679 21.6303 29.4081 20.9532 29.4427 20.2972C29.4782 19.6163 29.5541 18.9363 29.5579 18.2554C29.5695 15.6162 29.5416 12.9731 29.5656 10.3387C29.5781 8.95283 29.8057 8.99413 30.8622 8.98356C32.2269 8.96627 33.5917 9.00565 34.9564 9.00085C36.083 9.00085 37.2115 8.92594 38.3371 8.96627C38.8614 8.98452 39.3868 9.17468 39.8939 9.34083C40.0072 9.37829 40.1436 9.67121 40.1052 9.79703C39.842 10.6758 39.9438 11.5757 39.9054 12.467C39.8756 13.1633 39.7229 13.2997 39.0218 13.2891C37.6206 13.267 36.2184 13.2689 34.8172 13.2459C34.4993 13.2411 34.3696 13.3419 34.384 13.6723C34.4224 14.5539 34.4589 15.4375 34.4608 16.3201C34.4608 16.9665 34.3984 17.6119 34.383 18.2592C34.3629 19.1169 34.3898 19.1236 35.2551 19.0794C36.2549 19.0285 37.2566 18.9968 38.2573 18.9661C38.7433 18.9517 38.9392 19.137 38.9354 19.6134C38.9277 20.4125 38.8979 21.2115 38.8855 22.0144C38.8855 22.2065 38.9095 22.389 38.921 22.5753C38.9498 23.0296 38.7587 23.2735 38.3121 23.2793C37.3008 23.2908 36.2904 23.2927 35.2801 23.2697C34.6318 23.2543 34.5867 23.3023 34.5943 23.9506C34.6116 25.3989 34.6001 26.8472 34.6001 28.2955L34.5098 28.2898Z" fill="white"/>
<path d="M73.6951 29.7629C72.4724 29.7418 71.1202 28.5144 71.1461 27.4503C71.1749 26.2353 72.3332 24.7832 73.2744 24.8014C75.1136 24.837 76.0759 25.7004 76.1134 27.068C76.1595 28.6133 75.0454 29.7869 73.6951 29.7629Z" fill="white"/>
<path d="M73.8585 17.8123C73.3735 17.6913 72.8692 17.6154 72.4044 17.4377C71.59 17.1275 71.3479 16.4139 71.3172 15.6245C71.273 14.6429 71.5525 13.7584 72.3266 13.1187C72.5369 12.9459 72.8904 12.919 73.1852 12.8815C74.331 12.7394 75.2856 13.4424 75.7476 14.4921C76.2912 15.7272 75.665 17.1006 74.5836 17.6221C74.3723 17.7249 74.1216 17.746 73.8585 17.8123Z" fill="white"/>
<defs>
<linearGradient id="paint0_linear_301_328" x1="0.400391" y1="21" x2="151.6" y2="21" gradientUnits="userSpaceOnUse">
<stop stop-color="#C11C18"/>
<stop offset="1" stop-color="#1E612E"/>
</linearGradient>
</defs>
</svg>
