<svg width="423" height="509" viewBox="0 0 423 509" fill="none" xmlns="http://www.w3.org/2000/svg">
<path d="M383.077 160.01C361.856 146.211 337.194 138.905 314.078 128.623C290.963 118.34 268.079 103.845 256.753 81.2317C250.143 68.0891 247.94 53.091 241.291 40.0256C226.989 12.3101 193.552 -2.10816 162.474 0.249783C131.395 2.60773 102.752 19.3066 79.9845 40.6441C63.0686 55.7408 49.7426 74.4289 40.9818 95.3407C32.2647 116.46 31.3872 140.001 38.5078 161.711C44.0741 177.173 54.4336 191.127 57.2167 207.363C60.8116 228.507 50.916 249.612 39.0103 267.432C27.1046 285.252 12.6477 301.835 5.3033 321.974C0.165508 335.991 -1.27094 351.096 1.13264 365.831C3.53623 380.565 9.6987 394.43 19.0248 406.088C28.3509 417.746 40.5254 426.801 54.3727 432.381C68.22 437.96 83.2719 439.874 98.0749 437.939C117.905 435.349 136.189 426.033 155.516 420.853C174.844 415.674 197.573 415.442 212.532 428.584C229.463 443.582 230.507 469.945 244.152 487.997C257.797 506.049 282.807 512.697 304.415 506.899C326.023 501.101 343.495 483.706 352.578 463.49C361.114 442.686 363.306 419.823 358.879 397.776C356.057 381.889 350.646 365.963 353.004 349.96C355.052 336.276 362.629 324.139 370.051 312.426C380.101 296.539 421.964 270.099 422.157 226.497C422.273 198.665 402.211 174.506 383.077 160.01Z" fill="#F18C9E"/>
</svg>
