<svg width="419" height="505" viewBox="0 0 419 505" fill="none" xmlns="http://www.w3.org/2000/svg">
<path d="M379.808 158.645C358.768 144.963 334.316 137.719 311.398 127.525C288.48 117.331 265.791 102.959 254.562 80.5385C248.009 67.508 245.824 52.6379 239.232 39.6841C225.052 12.205 191.901 -2.09017 161.087 0.247652C130.274 2.58548 101.875 19.1419 79.3019 40.2973C62.5304 55.2651 49.3181 73.7938 40.632 94.5271C31.9894 115.467 31.1193 138.806 38.1792 160.331C43.698 175.661 53.9691 189.496 56.7285 205.593C60.2927 226.557 50.4815 247.482 38.6774 265.15C26.8733 282.818 12.5398 299.259 5.25805 319.227C0.164096 333.124 -1.2601 348.1 1.12298 362.709C3.50605 377.317 9.61594 391.065 18.8624 402.623C28.1089 414.181 40.1796 423.159 53.9087 428.691C67.6378 434.223 82.5613 436.121 97.238 434.202C116.899 431.634 135.027 422.397 154.189 417.262C173.351 412.126 195.887 411.896 210.718 424.927C227.505 439.797 228.539 465.935 242.068 483.832C255.597 501.73 280.393 508.322 301.817 502.573C323.24 496.825 340.563 479.578 349.57 459.534C358.033 438.908 360.206 416.24 355.817 394.382C353.019 378.63 347.654 362.84 349.991 346.974C352.023 333.407 359.534 321.373 366.893 309.76C376.857 294.009 418.363 267.794 418.555 224.564C418.67 196.97 398.779 173.017 379.808 158.645Z" fill="#71B01E"/>
</svg>
