<svg width="478" height="136" viewBox="0 0 478 136" fill="none" xmlns="http://www.w3.org/2000/svg">
<path d="M203.565 88.2313H206.829H212.759C214.624 88.2313 216.29 88.4955 216.889 88.6276C217.089 89.09 217.502 90.1865 217.555 90.8735C217.622 91.7321 217.822 95.5632 217.889 96.7522C217.955 97.9412 218.222 99.9228 218.688 101.508C219.154 103.093 220.02 104.348 221.153 105.207C222.286 106.066 223.418 106.991 225.15 108.113C226.882 109.236 227.682 109.368 228.615 109.434C229.547 109.501 232.878 108.576 233.678 108.113C234.477 107.651 236.343 106.066 236.742 105.207C237.142 104.348 237.942 102.036 238.608 99.9228C239.274 97.8091 239.008 96.0256 239.008 94.6385C239.008 93.2514 239.474 88.2313 239.474 85.5892V73.3693V62.2723V48.7974C239.474 45.0323 239.008 40.3426 239.008 38.6912V25.2823C239.008 22.6401 238.941 19.3376 239.008 17.7523C239.074 16.167 239.474 12.2038 239.474 11.8075C239.474 11.4111 240.14 9.82577 240.473 9.36344C240.806 8.90111 243.538 9.36344 246.203 9.36344H254.73H260.393H260.394C262.125 9.36344 263.524 9.36344 264.723 9.82577C265.923 10.2881 265.19 12.0716 265.19 15.9027V25.2823V33.8032V42.8525V59.6962V67.9529C265.19 69.4061 264.723 75.9453 264.723 78.2572C264.723 80.5691 264.79 85.8533 264.723 88.2313C264.657 90.6092 263.657 103.424 263.458 105.207C263.258 106.99 262.458 109.368 261.992 110.756C261.526 112.143 259.194 116.106 257.995 118.087C256.795 120.069 254.93 123.372 253.664 125.089C252.398 126.806 249.6 129.647 248.135 131.166C246.669 132.685 240.073 134.601 238.208 135.129C236.343 135.658 229.88 135.327 227.016 135.129C224.151 134.931 221.22 134.204 219.354 133.478C217.489 132.751 214.891 132.091 209.361 129.118C203.831 126.146 201.566 122.315 199.568 119.078C197.569 115.842 196.636 113.794 195.57 111.218C194.504 108.642 192.839 95.4311 192.839 93.7798C192.839 92.1284 192.639 90.6092 192.839 89.8826C193.039 89.156 194.704 88.2313 195.57 87.835C196.436 87.4387 198.235 87.835 199.568 88.2313C200.9 88.6276 202.233 88.2313 203.565 88.2313Z" fill="#07452B"/>
<path d="M355.599 132.664C357.195 132.939 359.207 133.077 360.039 133.214H363.438H370.584H375.648C376.966 133.214 376.758 130.188 376.758 128.95C376.758 127.712 377.244 121.04 377.799 118.426C378.354 115.812 377.244 106.596 377.244 105.495V94.8337V88.093C377.244 86.7173 376.411 77.7068 376.758 73.5111C377.105 69.3153 375.718 62.9186 375.718 59.9609V51.2943C375.718 49.5059 375.579 40.5642 375.718 39.4636C375.856 38.3631 376.689 38.5008 377.244 38.5008C377.799 38.5008 381.476 38.0192 383.349 38.0192C385.222 38.0192 390.91 38.088 392.229 38.0192C393.547 37.9504 394.657 37.2627 395.42 37.2627C396.183 37.2627 395.628 34.6489 395.836 33.0669C396.044 31.4849 396.322 27.5642 396.322 25.2944V11.2628C396.322 9.40562 396.46 8.44264 396.322 7.75484C396.183 7.06705 394.31 6.79188 393.339 6.79188C392.367 6.79188 388.968 6.31041 386.193 6.31041H376.134C372.665 6.31041 368.641 6.7231 364.271 6.79188C359.9 6.86067 352.408 6.31041 349.841 6.31041H339.851C337.215 6.31041 334.301 5.89771 333.746 5.89771C333.191 5.89771 331.942 6.9982 331.526 8.44264C331.11 9.88707 331.526 15.5961 331.11 17.0405C330.694 18.4849 331.526 22.1304 331.526 23.2309C331.526 24.3315 331.942 27.1516 331.942 28.3897C331.942 29.6278 331.596 33.1357 331.526 33.8923C331.457 34.6489 331.734 36.2997 332.498 36.8499C333.261 37.4002 335.203 37.2627 336.937 37.2627C338.672 37.2627 346.65 37.1251 347.69 37.2627C348.731 37.4002 349.841 38.0193 349.841 38.5008C349.841 38.9822 350.396 40.7707 350.396 41.94C350.396 43.1093 350.465 47.0299 350.396 49.2997C350.327 51.5695 350.396 52.8075 349.841 54.8022C349.286 56.7969 349.841 60.7176 349.841 62.9186C349.841 65.1196 351.159 73.1672 351.159 74.8868V83.5534C351.159 85.0666 351.298 99.6485 351.159 101.574C351.02 103.5 350.396 107.077 350.396 108.315V125.923C350.396 127.299 350.327 128.675 350.396 129.294C350.465 129.913 351.922 131.289 353.102 132.252C354.281 133.214 354.004 132.389 355.599 132.664Z" fill="#07452B"/>
<path d="M73.0518 131.817C72.5083 131.719 72.002 129.45 71.8167 128.327C71.6726 126.96 71.3845 123.919 71.3845 122.694C71.3845 121.164 71.3845 117.98 71.8167 116.204C72.2489 114.429 71.8167 109.286 71.8167 107.326C71.8167 105.367 71.3845 100.346 71.3845 98.9993C71.3845 97.6523 71.014 94.3563 71.3845 91.652C71.7551 88.9477 71.3845 83.0801 71.3845 82.0393C71.3845 80.9984 71.261 77.141 71.3845 76.3451C71.508 75.5491 70.2112 74.7532 69.9024 75.0593C69.5937 75.3654 68.4203 78.1819 67.8028 79.3452C67.1852 80.5086 66.3207 83.5087 66.0737 84.8557C65.8266 86.2027 64.0975 90.305 63.6652 91.1622C63.233 92.0194 62.3684 95.2032 61.6891 97.7748C61.0098 100.346 58.4161 106.836 58.1691 107.326C57.9221 107.816 56.8105 110.331 55.7607 111.612C54.7109 112.894 51.4379 113.572 49.5235 113.572H42.4218C41.7425 113.572 39.8281 111.918 39.3958 110.331C38.9635 108.743 38.346 107.02 38.0372 104.877C37.7285 102.734 35.8141 98.6932 35.5053 97.7748C35.1965 96.8564 32.9734 92.5704 32.7881 91.1622C32.6028 89.7539 31.1207 82.6515 30.6885 81.2759C30.2562 79.9003 29.7004 79.284 28.4036 78.5493C27.1067 77.8145 28.0378 81.2759 28.0378 83.0801V91.1622C28.0378 93.0602 28.2713 100.028 28.0378 101.07C27.8043 102.112 27.4541 108.479 27.4541 110.331V120.054V132.736H19.7485H18.5587C17.6069 132.736 16.8777 132.531 16.632 132.428C16.3781 132.428 15.7986 132.38 15.5119 132.185C15.2251 131.99 14.4365 132.471 14.0781 132.736H12.7434H7.77761C6.79379 132.736 6.00819 132.368 5.73837 132.185V126.652C5.73837 125.842 6.43885 115.308 5.73837 112.53C5.03789 109.752 6.43885 102.691 6.43885 101.07V94.3563C6.43885 91.4624 7.03658 85.7904 7.03658 81.2759V65.2628C7.03658 60.9157 6.66607 45.6087 7.03658 42.731C7.40709 39.8533 7.09833 16.2806 7.03658 14.8112C6.97483 13.3417 7.34533 12.1784 7.77761 11.5049C8.20989 10.8314 10.3713 10.0966 11.9151 9.48435C13.459 8.87205 15.9909 9.48435 17.967 8.99455C19.9432 8.50474 22.9692 7.70876 24.8218 7.70876C26.6744 7.70876 29.021 7.46385 30.1326 7.70876C31.2442 7.95368 32.3558 12.7294 32.9116 15.2398C33.4674 17.7501 34.7024 21.5462 35.1965 23.2606C35.6905 24.975 36.6786 28.5874 37.6049 31.3427C38.5312 34.0979 41.3102 42.6698 42.4218 45.1189C43.5333 47.568 45.88 53.4459 46.4358 56.691C46.9916 59.936 49.4 64.5281 49.5235 65.2628C49.647 65.9976 50.5116 65.569 50.9438 64.8343C51.3761 64.0995 51.8084 62.4464 52.4259 60.4259C53.0435 58.4053 53.7845 54.7929 54.7726 52.405C55.7607 50.0171 56.5017 47.9966 57.4898 45.6087C58.4778 43.2209 59.4659 39.6084 60.0217 36.7307C60.5775 33.853 61.689 30.8529 62.4918 28.5874C63.2946 26.322 63.4799 22.4647 64.1592 20.0155C64.8385 17.5664 67.1234 11.8723 67.3704 10.0966C67.6175 8.32104 68.3585 7.03526 69.4083 6.66789C70.4581 6.30053 74.1016 6.36173 77.0659 6.36173C80.0301 6.36173 88.2434 6.54541 90.0343 6.36173C91.8251 6.17805 92.6279 8.2598 92.6279 9.48435C92.6279 10.7089 92.875 15.4234 93.5543 20.3829C94.2336 25.3423 93.369 32.1386 93.5543 39.0573C93.7395 45.9761 94.0483 50.6907 94.4188 54.7929C94.7894 58.8952 94.3571 70.957 94.7893 77.141C95.2216 83.325 95.3451 85.7129 96.1479 90.305C96.9507 94.8971 96.4567 123.613 96.4567 125.144C96.4567 126.674 96.5802 129.491 96.4567 129.981C96.3332 130.47 94.7276 131.328 94.3571 131.511C93.9865 131.695 91.6399 131.817 90.2195 132.185C88.7992 132.552 86.1438 132.858 84.7852 132.736C83.4524 132.616 82.1196 132.26 80.5537 131.842L80.4623 131.817C78.8567 131.389 75.8925 131.817 74.9045 131.817C73.9164 131.817 73.7311 131.94 73.0518 131.817Z" fill="#07452B"/>
<path fill-rule="evenodd" clip-rule="evenodd" d="M115.04 95.7273C114.634 94.5735 114.277 93.5583 114.277 93.0431C114.277 92.5978 114.124 91.6187 113.93 90.3776C113.619 88.3906 113.203 85.7322 113.143 83.519C113.104 82.0984 113.203 80.9661 113.295 79.9181C113.435 78.3138 113.558 76.9073 113.143 74.9675C112.923 73.9397 112.663 73.2214 112.43 72.579C111.937 71.2169 111.567 70.196 111.967 67.2906C112.259 65.1639 112.562 62.5084 112.86 59.8979C113.161 57.2599 113.457 54.6679 113.731 52.7141C114.17 49.591 114.672 47.4716 115.509 43.9366C115.714 43.0719 115.939 42.1225 116.188 41.0529C116.904 37.978 116.852 36.6787 116.814 35.7472C116.785 35.0302 116.765 34.5311 117.111 33.6077C117.171 33.4462 117.228 33.2959 117.28 33.1552C117.92 31.4463 118.033 31.146 118.824 29.2408C118.914 29.0243 119.027 28.7516 119.157 28.4354C120.273 25.7394 122.7 19.8752 123.412 18.6267C124.207 17.2317 126.715 13.2893 127.388 12.5008C127.874 11.9319 129.792 10.7317 131.19 9.85666C131.73 9.51882 132.193 9.22945 132.466 9.04362C133.444 8.37644 138.705 6.25359 140.235 5.64707C141.764 5.04055 147.759 3.82753 150.145 3.70622C152.531 3.58492 165.499 4.8586 168.497 9.77142C170.99 13.8571 172.975 16.2649 174.382 17.9715C174.667 18.317 174.928 18.6338 175.165 18.9299C176.572 20.6889 178.958 25.6623 179.692 27.9065C180.426 30.1506 181.71 35.306 182.444 39.0058C182.575 39.6616 182.789 40.7155 183.054 42.0158C184.283 48.0515 186.593 59.3934 186.543 60.8406C186.509 61.831 186.61 63.1292 186.738 64.7675C186.837 66.0387 186.952 67.5146 187.032 69.2106C187.086 70.3427 187.181 71.5213 187.278 72.7267C187.515 75.6543 187.764 78.7405 187.461 81.7049C187.032 85.8899 183.607 100.871 182.995 103.54C182.82 104.302 182.685 105.104 182.543 105.949C182.189 108.06 181.789 110.437 180.609 113.123C178.958 116.883 174.614 126.648 172.534 128.225C170.454 129.802 165.989 133.017 164.215 133.562C162.441 134.108 154.61 135.261 152.775 135.382C150.94 135.503 148.615 135.321 145.496 134.169C142.376 133.017 137.604 131.015 136.442 130.105C136.059 129.806 135.557 129.559 134.994 129.282C133.848 128.718 132.452 128.032 131.303 126.527C130.406 125.351 129.693 124.176 128.981 123C128.333 121.932 127.685 120.863 126.899 119.794C125.247 117.55 123.167 114.639 122.372 113.123C122.19 112.776 121.989 112.404 121.78 112.017C121.074 110.71 120.274 109.231 119.803 107.967C119.313 106.657 117.189 102.105 116.188 99.9923C116.129 98.8232 115.547 97.1674 115.04 95.7273ZM143.34 33.6077C143.466 32.8417 144.829 31.2282 145.496 30.5172C146.254 29.9208 147.953 28.6623 148.684 28.3988C149.597 28.0694 150.677 27.9065 151.425 27.9065C152.085 27.9065 154.105 28.6116 155.427 29.0727C155.602 29.1337 155.764 29.1905 155.91 29.2408C157.156 29.671 158.9 32.2694 158.9 33.0105C158.9 33.501 159.809 35.3619 160.593 36.9656C160.994 37.7853 161.361 38.5378 161.558 39.0058C162.139 40.3893 162.638 43.7988 162.804 45.1165C162.97 46.4341 163.468 50.4694 163.468 52.7141C163.468 53.8191 163.73 54.9087 163.996 56.0151C164.27 57.1564 164.548 58.3156 164.548 59.5283V66.7753V73.1165V79.5401C164.548 81.2573 164.186 84.5769 163.881 87.3706C163.66 89.4002 163.468 91.1523 163.468 91.8107C163.468 92.6531 162.818 95.2381 162.179 97.7793C161.631 99.9581 161.092 102.105 160.977 103.093C160.727 105.234 159.565 107.967 158.9 109.434C158.236 110.901 156.408 112.481 154.664 113.123C153.257 113.64 151.526 112.477 149.862 111.359C149.464 111.091 149.069 110.826 148.684 110.587C146.69 109.352 145.496 107.967 144.697 106.634C143.898 105.301 141.789 101.199 141.291 99.9923C140.793 98.7857 139.63 95.7636 138.965 93.0431C138.708 91.9903 138.476 90.7415 138.235 89.4452C137.853 87.3919 137.449 85.2195 136.889 83.519C136.143 81.2543 136.227 77.8945 136.284 75.6618C136.296 75.1597 136.307 74.7147 136.307 74.3518C136.307 73.7635 136.278 73.0699 136.245 72.3021C136.168 70.4903 136.074 68.2651 136.307 66.0342C136.64 62.8577 137.221 59.1988 137.802 56.5635C138.298 54.3196 138.552 52.2548 138.821 50.0641C138.868 49.682 138.916 49.2961 138.965 48.9047C139.298 46.2694 141.042 39.5164 141.291 39.0058C141.54 38.4951 143.183 34.5652 143.34 33.6077Z" fill="#07452B"/>
<path fill-rule="evenodd" clip-rule="evenodd" d="M404.777 95.7273C404.371 94.5735 404.014 93.5583 404.014 93.0431C404.014 92.5978 403.86 91.6187 403.666 90.3776C403.356 88.3906 402.94 85.7322 402.88 83.519C402.841 82.0984 402.94 80.9661 403.032 79.9181C403.172 78.3138 403.295 76.9073 402.88 74.9675C402.66 73.9397 402.4 73.2214 402.167 72.579C401.674 71.2169 401.304 70.196 401.704 67.2906C401.996 65.1639 402.299 62.5084 402.597 59.8979C402.898 57.2599 403.193 54.6679 403.468 52.7141C403.906 49.591 404.409 47.4716 405.246 43.9366C405.451 43.0719 405.676 42.1225 405.925 41.0529C406.641 37.978 406.589 36.6787 406.551 35.7472C406.522 35.0302 406.502 34.5311 406.848 33.6077C406.908 33.4462 406.965 33.2959 407.017 33.1552C407.657 31.4463 407.769 31.146 408.561 29.2408C408.651 29.0243 408.763 28.7516 408.894 28.4354C410.01 25.7394 412.437 19.8752 413.149 18.6267C413.944 17.2317 416.452 13.2893 417.125 12.5008C417.61 11.9319 419.529 10.7317 420.927 9.85666C421.467 9.51882 421.93 9.22945 422.202 9.04362C423.181 8.37644 428.442 6.25359 429.971 5.64707C431.501 5.04055 437.496 3.82753 439.882 3.70622C442.267 3.58492 455.236 4.8586 458.234 9.77142C460.726 13.8571 462.712 16.2649 464.119 17.9715C464.404 18.317 464.665 18.6338 464.902 18.9299C466.309 20.6889 468.694 25.6623 469.428 27.9065C470.163 30.1506 471.447 35.306 472.181 39.0058C472.311 39.6616 472.526 40.7155 472.791 42.0158C474.02 48.0515 476.33 59.3934 476.28 60.8406C476.245 61.831 476.347 63.1292 476.475 64.7675C476.574 66.0387 476.689 67.5146 476.769 69.2106C476.823 70.3427 476.918 71.5213 477.015 72.7267C477.252 75.6543 477.501 78.7405 477.198 81.7049C476.769 85.8899 473.344 100.871 472.732 103.54C472.557 104.302 472.422 105.104 472.28 105.949C471.925 108.06 471.526 110.437 470.346 113.123C468.694 116.883 464.351 126.648 462.271 128.225C460.191 129.802 455.726 133.017 453.952 133.562C452.177 134.108 444.347 135.261 442.512 135.382C440.677 135.503 438.352 135.321 435.232 134.169C432.112 133.017 427.341 131.015 426.179 130.105C425.796 129.806 425.293 129.559 424.731 129.282C423.585 128.718 422.189 128.032 421.04 126.527C420.143 125.351 419.43 124.176 418.718 123C418.07 121.932 417.422 120.863 416.636 119.794C414.984 117.55 412.904 114.639 412.109 113.123C411.927 112.776 411.726 112.404 411.517 112.017C410.811 110.71 410.011 109.231 409.539 107.967C409.05 106.657 406.926 102.105 405.925 99.9923C405.866 98.8232 405.284 97.1674 404.777 95.7273ZM433.077 33.6077C433.202 32.8417 434.566 31.2282 435.232 30.5172C435.99 29.9208 437.689 28.6623 438.42 28.3988C439.334 28.0694 440.414 27.9065 441.161 27.9065C441.822 27.9065 443.842 28.6116 445.164 29.0727C445.338 29.1337 445.501 29.1905 445.647 29.2408C446.893 29.671 448.637 32.2694 448.637 33.0105C448.637 33.501 449.546 35.3619 450.33 36.9656C450.73 37.7853 451.098 38.5378 451.295 39.0058C451.876 40.3893 452.375 43.7988 452.541 45.1165C452.707 46.4341 453.205 50.4694 453.205 52.7141C453.205 53.8191 453.467 54.9087 453.733 56.0151C454.007 57.1564 454.285 58.3156 454.285 59.5283V66.7753V73.1165V79.5401C454.285 81.2573 453.923 84.5769 453.618 87.3706C453.396 89.4002 453.205 91.1523 453.205 91.8107C453.205 92.6531 452.555 95.2381 451.916 97.7793C451.368 99.9581 450.828 102.105 450.713 103.093C450.464 105.234 449.301 107.967 448.637 109.434C447.972 110.901 446.145 112.481 444.401 113.123C442.994 113.64 441.262 112.477 439.599 111.359C439.201 111.091 438.806 110.826 438.42 110.587C436.427 109.352 435.232 107.967 434.433 106.634C433.634 105.301 431.526 101.199 431.028 99.9923C430.529 98.7857 429.367 95.7636 428.702 93.0431C428.445 91.9903 428.213 90.7415 427.972 89.4452C427.59 87.3919 427.186 85.2195 426.626 83.519C425.88 81.2543 425.964 77.8945 426.02 75.6618C426.033 75.1597 426.044 74.7147 426.044 74.3518C426.044 73.7635 426.015 73.0699 425.982 72.3021C425.905 70.4903 425.811 68.2651 426.044 66.0342C426.376 62.8577 426.958 59.1988 427.539 56.5635C428.034 54.3196 428.289 52.2548 428.558 50.0641C428.605 49.682 428.653 49.2961 428.702 48.9047C429.034 46.2694 430.779 39.5164 431.028 39.0058C431.277 38.4951 432.92 34.5652 433.077 33.6077Z" fill="#07452B"/>
<path d="M295.285 134.472C296.161 134.255 297.659 134.382 298.299 134.472H303.833C305.312 134.472 307.285 134.744 309.641 135.124C311.998 135.505 311.724 134.472 312.162 134.038C312.6 133.603 313.368 130.887 313.368 129.691C313.368 128.496 313.642 122.791 313.368 120.89C313.094 118.988 313.916 112.632 313.368 110.024C312.82 107.416 313.039 99.0493 313.039 96.6045C313.039 94.1597 313.258 75.4159 313.039 72.7537C312.82 70.0916 312.655 66.6145 312.655 64.8759C312.655 63.1374 312.326 52.869 312.655 51.0762C312.984 49.2833 312.655 44.5023 312.655 43.8503C312.655 43.1983 312.436 40.3189 311.998 39.8842C311.559 39.4496 309.313 38.7433 307.833 38.4717C306.354 38.2 302.956 38.1457 301.641 38.1457H293.641H287.339C286.188 38.1457 285.038 40.3189 284.49 42.0574C283.942 43.796 284.49 47.2187 284.49 48.7943C284.49 50.3699 284.161 51.7824 284.161 53.2494V60.7469C284.161 61.9422 284.49 71.7758 284.49 73.949C284.49 76.1222 284.709 80.3056 285.038 81.9898C285.366 83.674 284.764 88.944 285.038 90.8456C285.312 92.7471 285.038 96.2242 285.038 97.8541V103.559V110.024C285.038 111.219 284.709 115.24 284.325 116.707C283.942 118.173 284.325 121.379 284.325 122.357V128.605C284.325 130.561 284.106 131.865 284.325 132.679C284.544 133.494 284.873 134.472 285.366 135.124C285.86 135.776 287.284 135.124 288.545 135.124C289.805 135.124 291.23 135.342 293.038 135.124C294.846 134.907 294.189 134.744 295.285 134.472Z" fill="#07452B"/>
<path d="M283.832 30.1592H288.106C288.983 30.3222 290.901 30.6482 291.558 30.6482C292.38 30.6482 293.641 30.1592 295.394 30.1592C297.148 30.1592 301.641 30.6482 303.285 30.6482C304.929 30.6482 306.902 30.5939 309.861 30.6482C312.82 30.7025 311.998 28.6923 311.998 27.2798V19.8366V12.5021C311.998 10.6548 310.08 7.72101 309.367 7.72101C308.655 7.72101 305.038 7.34074 303.614 7.72101C302.189 8.10127 298.463 7.72101 296.655 7.72101H289.531H285.531C283.996 7.72101 283.284 9.35092 283.284 9.78556C283.284 10.2202 282.846 12.991 282.846 14.3493V18.913C282.846 20.2169 283.284 22.1728 283.284 23.3137C283.284 24.4546 283.339 27.9317 283.284 28.4206C283.24 28.8118 283.631 29.7427 283.832 30.1592Z" fill="#07452B"/>
<path d="M198.89 84.9473H202.154H208.084C209.949 84.9473 211.615 85.2116 212.214 85.3437C212.414 85.8061 212.827 86.9026 212.88 87.5895C212.947 88.4482 213.147 92.2793 213.213 93.4683C213.28 94.6572 213.547 96.6388 214.013 98.2241C214.479 99.8094 215.345 101.064 216.478 101.923C217.61 102.782 218.743 103.707 220.475 104.829C222.207 105.952 223.007 106.084 223.94 106.151C224.872 106.217 228.203 105.292 229.003 104.829C229.802 104.367 231.668 102.782 232.067 101.923C232.467 101.064 233.267 98.7526 233.933 96.6388C234.599 94.5251 234.332 92.7417 234.332 91.3546C234.332 89.9674 234.799 84.9473 234.799 82.3052V70.0854V58.9884V45.5135C234.799 41.7484 234.332 37.0586 234.332 35.4073V21.9984C234.332 19.3562 234.266 16.0536 234.332 14.4683C234.399 12.883 234.799 8.91984 234.799 8.52352C234.799 8.1272 235.465 6.54183 235.798 6.0795C236.131 5.61717 238.863 6.0795 241.528 6.0795H250.055H255.718H255.718C257.45 6.0795 258.849 6.0795 260.048 6.54183C261.248 7.00421 260.515 8.78766 260.515 12.6188V21.9984V30.5193V39.5686V56.4122V64.669C260.515 66.1222 260.048 72.6614 260.048 74.9733C260.048 77.2851 260.115 82.5694 260.048 84.9473C259.982 87.3253 258.982 100.14 258.783 101.923C258.583 103.707 257.783 106.084 257.317 107.472C256.851 108.859 254.519 112.822 253.32 114.803C252.12 116.785 250.255 120.088 248.989 121.805C247.723 123.523 244.925 126.363 243.46 127.882C241.994 129.401 235.398 131.317 233.533 131.845C231.668 132.374 225.205 132.043 222.341 131.845C219.476 131.647 216.545 130.921 214.679 130.194C212.814 129.467 210.215 128.807 204.686 125.834C199.156 122.862 196.891 119.031 194.893 115.794C192.894 112.558 191.961 110.51 190.895 107.934C189.829 105.358 188.164 92.1472 188.164 90.4958C188.164 88.8445 187.964 87.3253 188.164 86.5987C188.364 85.8721 190.029 84.9473 190.895 84.551C191.761 84.1548 193.56 84.5511 194.893 84.9473C196.225 85.3436 197.557 84.9473 198.89 84.9473Z" fill="white"/>
<path d="M350.924 129.38C352.52 129.656 354.532 129.793 355.364 129.931H358.763H365.909H370.973C372.291 129.931 372.083 126.904 372.083 125.666C372.083 124.428 372.569 117.756 373.124 115.142C373.679 112.529 372.569 103.312 372.569 102.211V91.55V84.8093C372.569 83.4336 371.736 74.4231 372.083 70.2274C372.43 66.0316 371.042 59.6349 371.042 56.6772V48.0106C371.042 46.2222 370.904 37.2805 371.042 36.18C371.181 35.0794 372.014 35.2171 372.569 35.2171C373.124 35.2171 376.801 34.7355 378.674 34.7355C380.547 34.7355 386.235 34.8043 387.554 34.7355C388.872 34.6667 389.982 33.979 390.745 33.979C391.508 33.979 390.953 31.3652 391.161 29.7832C391.369 28.2012 391.647 24.2806 391.647 22.0107V7.97907C391.647 6.12193 391.785 5.15894 391.647 4.47115C391.508 3.78336 389.635 3.50819 388.664 3.50819C387.692 3.50819 384.293 3.02671 381.518 3.02671H371.459C367.99 3.02671 363.966 3.43941 359.596 3.50819C355.225 3.57698 347.733 3.02671 345.166 3.02671H335.176C332.54 3.02671 329.626 2.61401 329.071 2.61401C328.516 2.61401 327.267 3.71451 326.851 5.15894C326.435 6.60338 326.851 12.3124 326.435 13.7568C326.019 15.2012 326.851 18.8467 326.851 19.9473C326.851 21.0478 327.267 23.8679 327.267 25.106C327.267 26.3441 326.921 29.852 326.851 30.6086C326.782 31.3652 327.059 33.016 327.822 33.5662C328.586 34.1165 330.528 33.979 332.262 33.979C333.997 33.979 341.975 33.8414 343.015 33.979C344.056 34.1165 345.166 34.7356 345.166 35.2171C345.166 35.6985 345.721 37.487 345.721 38.6563C345.721 39.8256 345.79 43.7462 345.721 46.016C345.652 48.2858 345.721 49.5238 345.166 51.5185C344.611 53.5132 345.166 57.4339 345.166 59.6349C345.166 61.836 346.484 69.8835 346.484 71.6031V80.2697C346.484 81.7829 346.623 96.3648 346.484 98.2907C346.345 100.217 345.721 103.793 345.721 105.031V122.64C345.721 124.015 345.652 125.391 345.721 126.01C345.79 126.629 347.247 128.005 348.427 128.968C349.606 129.931 349.328 129.105 350.924 129.38Z" fill="white"/>
<path d="M68.376 128.533C67.8326 128.435 67.3262 126.166 67.1409 125.043C66.9969 123.676 66.7087 120.635 66.7087 119.41C66.7087 117.879 66.7087 114.696 67.1409 112.92C67.5731 111.144 67.1409 106.001 67.1409 104.042C67.1409 102.083 66.7087 97.0619 66.7087 95.7149C66.7087 94.3679 66.3382 91.0719 66.7087 88.3676C67.0793 85.6633 66.7087 79.7957 66.7087 78.7548C66.7087 77.714 66.5852 73.8566 66.7087 73.0606C66.8323 72.2647 65.5354 71.4687 65.2266 71.7749C64.9179 72.081 63.7445 74.8975 63.127 76.0608C62.5095 77.2241 61.6449 80.2243 61.3979 81.5713C61.1509 82.9183 59.4217 87.0206 58.9895 87.8778C58.5572 88.7349 57.6926 91.9188 57.0133 94.4904C56.334 97.0619 53.7403 103.552 53.4933 104.042C53.2463 104.532 52.1347 107.046 51.0849 108.328C50.0351 109.609 46.7621 110.287 44.8477 110.287H37.746C37.0667 110.287 35.1523 108.634 34.72 107.046C34.2878 105.458 33.6702 103.736 33.3614 101.593C33.0527 99.4498 31.1383 95.4088 30.8295 94.4904C30.5207 93.5719 28.2976 89.286 28.1123 87.8778C27.9271 86.4695 26.445 79.3671 26.0127 77.9915C25.5804 76.6159 25.0246 75.9996 23.7278 75.2648C22.4309 74.5301 23.3621 77.9915 23.3621 79.7957V87.8778C23.3621 89.7758 23.5956 96.7439 23.3621 97.7858C23.1286 98.8276 22.7783 105.194 22.7783 107.046V116.77V129.451H15.0727H13.883C12.9311 129.451 12.2019 129.246 11.9563 129.144C11.7024 129.144 11.1229 129.095 10.8361 128.9C10.5493 128.705 9.76073 129.187 9.40227 129.451H8.06765H3.10183C2.11801 129.451 1.33241 129.084 1.06259 128.9V123.368C1.06259 122.558 1.76307 112.024 1.06259 109.246C0.362111 106.467 1.76307 99.4063 1.76307 97.7858V91.0719C1.76307 88.178 2.3608 82.506 2.3608 77.9915V61.9784C2.3608 57.6313 1.99029 42.3243 2.3608 39.4466C2.7313 36.5689 2.42255 12.9962 2.3608 11.5268C2.29904 10.0573 2.66955 8.89397 3.10183 8.22046C3.53411 7.54696 5.69551 6.81222 7.23937 6.19993C8.78322 5.58763 11.3151 6.19993 13.2913 5.71012C15.2674 5.22032 18.2934 4.42434 20.146 4.42434C21.9986 4.42434 24.3453 4.17943 25.4568 4.42434C26.5684 4.66925 27.68 9.44502 28.2358 11.9554C28.7916 14.4657 30.0266 18.2618 30.5207 19.9762C31.0147 21.6906 32.0028 25.303 32.9291 28.0583C33.8554 30.8135 36.6344 39.3854 37.746 41.8345C38.8576 44.2836 41.2042 50.1615 41.76 53.4065C42.3158 56.6516 44.7242 61.2437 44.8477 61.9784C44.9712 62.7132 45.8358 62.2846 46.2681 61.5498C46.7003 60.8151 47.1326 59.1619 47.7502 57.1414C48.3677 55.1209 49.1087 51.5085 50.0968 49.1206C51.0849 46.7327 51.8259 44.7122 52.814 42.3243C53.8021 39.9364 54.7901 36.324 55.3459 33.4463C55.9017 30.5686 57.0132 27.5684 57.8161 25.303C58.6189 23.0376 58.8041 19.1802 59.4834 16.7311C60.1627 14.282 62.4476 8.58783 62.6947 6.81222C62.9417 5.03662 63.6827 3.75084 64.7325 3.38347C65.7824 3.0161 69.4259 3.07731 72.3901 3.07731C75.3543 3.07731 83.5676 3.26099 85.3585 3.07731C87.1494 2.89362 87.9522 4.97537 87.9522 6.19993C87.9522 7.42448 88.1992 12.139 88.8785 17.0985C89.5578 22.0579 88.6932 28.8542 88.8785 35.7729C89.0637 42.6916 89.3725 47.4063 89.743 51.5085C90.1136 55.6108 89.6813 67.6726 90.1136 73.8566C90.5458 80.0406 90.6694 82.4285 91.4722 87.0206C92.275 91.6127 91.7809 120.328 91.7809 121.859C91.7809 123.39 91.9044 126.206 91.7809 126.696C91.6574 127.186 90.0518 128.043 89.6813 128.227C89.3108 128.411 86.9641 128.533 85.5438 128.9C84.1234 129.268 81.468 129.574 80.1094 129.451C78.7766 129.331 77.4438 128.975 75.8779 128.557L75.7866 128.533C74.181 128.104 71.2167 128.533 70.2287 128.533C69.2406 128.533 69.0553 128.655 68.376 128.533Z" fill="white"/>
<path fill-rule="evenodd" clip-rule="evenodd" d="M110.365 92.4434C109.959 91.2896 109.602 90.2744 109.602 89.7592C109.602 89.3139 109.449 88.3347 109.255 87.0937C108.944 85.1066 108.528 82.4483 108.468 80.2351C108.429 78.8145 108.528 77.6821 108.62 76.6342C108.76 75.0298 108.883 73.6234 108.468 71.6836C108.248 70.6558 107.988 69.9375 107.755 69.295C107.262 67.933 106.892 66.9121 107.292 64.0067C107.584 61.88 107.887 59.2245 108.185 56.614C108.486 53.9759 108.782 51.3839 109.056 49.4302C109.494 46.3071 109.997 44.1877 110.834 40.6526C111.039 39.7879 111.264 38.8385 111.513 37.769C112.229 34.6941 112.177 33.3948 112.139 32.4633C112.11 31.7462 112.09 31.2471 112.436 30.3238C112.496 30.1623 112.553 30.012 112.605 29.8712C113.245 28.1624 113.357 27.8621 114.149 25.9568C114.239 25.7403 114.351 25.4677 114.482 25.1514C115.598 22.4554 118.025 16.5913 118.737 15.3427C119.532 13.9477 122.04 10.0053 122.713 9.21686C123.199 8.64801 125.117 7.44777 126.515 6.57273C127.055 6.23489 127.518 5.94552 127.79 5.75968C128.769 5.09251 134.03 2.96965 135.56 2.36313C137.089 1.75661 143.084 0.543591 145.47 0.422287C147.855 0.300982 160.824 1.57466 163.822 6.48749C166.315 10.5731 168.3 12.9809 169.707 14.6876C169.992 15.0331 170.253 15.3499 170.49 15.646C171.897 17.4049 174.283 22.3784 175.017 24.6225C175.751 26.8666 177.035 32.0221 177.769 35.7219C177.9 36.3776 178.114 37.4316 178.379 38.7318C179.608 44.7675 181.918 56.1095 181.868 57.5566C181.834 58.5471 181.935 59.8452 182.063 61.4836C182.162 62.7547 182.277 64.2307 182.357 65.9266C182.411 67.0588 182.506 68.2373 182.603 69.4428C182.84 72.3704 183.089 75.4565 182.786 78.421C182.357 82.606 178.932 97.587 178.32 100.256C178.145 101.018 178.01 101.82 177.868 102.665C177.513 104.776 177.114 107.153 175.934 109.839C174.283 113.599 169.939 123.364 167.859 124.941C165.779 126.518 161.314 129.733 159.54 130.279C157.766 130.824 149.935 131.977 148.1 132.098C146.265 132.219 143.94 132.037 140.82 130.885C137.701 129.733 132.929 127.731 131.767 126.821C131.384 126.522 130.882 126.275 130.319 125.998C129.173 125.434 127.777 124.748 126.628 123.243C125.731 122.067 125.018 120.892 124.306 119.716C123.658 118.648 123.01 117.579 122.224 116.511C120.572 114.266 118.492 111.355 117.697 109.839C117.515 109.492 117.314 109.12 117.105 108.733C116.399 107.426 115.599 105.947 115.128 104.683C114.638 103.373 112.514 98.8208 111.513 96.7084C111.454 95.5393 110.872 93.8834 110.365 92.4434ZM138.665 30.3238C138.791 29.5578 140.154 27.9443 140.82 27.2332C141.579 26.6369 143.278 25.3784 144.008 25.1148C144.922 24.7854 146.002 24.6225 146.749 24.6225C147.41 24.6225 149.43 25.3277 150.752 25.7888C150.927 25.8498 151.089 25.9065 151.235 25.9568C152.481 26.387 154.225 28.9854 154.225 29.7266C154.225 30.2171 155.134 32.078 155.918 33.6817C156.319 34.5014 156.686 35.2539 156.883 35.7219C157.464 37.1053 157.963 40.5149 158.129 41.8325C158.295 43.1502 158.793 47.1855 158.793 49.4302C158.793 50.5352 159.055 51.6247 159.321 52.7312C159.595 53.8725 159.873 55.0317 159.873 56.2443V63.4914V69.8326V76.2561C159.873 77.9733 159.511 81.293 159.206 84.0867C158.985 86.1163 158.793 87.8683 158.793 88.5267C158.793 89.3692 158.143 91.9542 157.504 94.4953C156.956 96.6741 156.417 98.8207 156.302 99.8091C156.052 101.95 154.889 104.683 154.225 106.15C153.561 107.617 151.733 109.197 149.989 109.839C148.582 110.356 146.851 109.193 145.187 108.075C144.789 107.807 144.394 107.542 144.008 107.303C142.015 106.068 140.82 104.683 140.022 103.35C139.223 102.017 137.114 97.915 136.616 96.7084C136.118 95.5018 134.955 92.4797 134.29 89.7592C134.033 88.7064 133.801 87.4576 133.56 86.1613C133.178 84.1079 132.774 81.9356 132.214 80.2351C131.468 77.9703 131.552 74.6106 131.608 72.3778C131.621 71.8758 131.632 71.4307 131.632 71.0679C131.632 70.4796 131.603 69.786 131.57 69.0182C131.493 67.2064 131.399 64.9812 131.632 62.7502C131.965 59.5738 132.546 55.9149 133.127 53.2796C133.622 51.0357 133.877 48.9709 134.146 46.7802C134.193 46.3981 134.241 46.0121 134.29 45.6208C134.623 42.9855 136.367 36.2325 136.616 35.7219C136.865 35.2112 138.508 31.2813 138.665 30.3238Z" fill="white"/>
<path fill-rule="evenodd" clip-rule="evenodd" d="M400.101 92.4434C399.695 91.2896 399.338 90.2744 399.338 89.7592C399.338 89.3139 399.184 88.3347 398.99 87.0937C398.68 85.1066 398.264 82.4483 398.204 80.2351C398.165 78.8145 398.264 77.6821 398.356 76.6342C398.496 75.0298 398.619 73.6234 398.204 71.6836C397.984 70.6558 397.724 69.9375 397.491 69.295C396.998 67.933 396.628 66.9121 397.028 64.0067C397.32 61.88 397.623 59.2245 397.921 56.614C398.222 53.9759 398.517 51.3839 398.792 49.4302C399.23 46.3071 399.733 44.1877 400.57 40.6526C400.775 39.7879 401 38.8385 401.249 37.769C401.965 34.6941 401.913 33.3948 401.875 32.4633C401.846 31.7462 401.826 31.2471 402.172 30.3238C402.232 30.1623 402.288 30.012 402.341 29.8712C402.981 28.1624 403.093 27.8621 403.885 25.9568C403.974 25.7403 404.087 25.4677 404.218 25.1514C405.334 22.4554 407.761 16.5913 408.473 15.3427C409.268 13.9477 411.776 10.0053 412.449 9.21686C412.934 8.64801 414.853 7.44777 416.251 6.57273C416.791 6.23489 417.254 5.94552 417.526 5.75968C418.505 5.09251 423.766 2.96965 425.295 2.36313C426.825 1.75661 432.82 0.543591 435.206 0.422287C437.591 0.300982 450.56 1.57466 453.558 6.48749C456.05 10.5731 458.036 12.9809 459.443 14.6876C459.728 15.0331 459.989 15.3499 460.226 15.646C461.633 17.4049 464.018 22.3784 464.752 24.6225C465.487 26.8666 466.771 32.0221 467.505 35.7219C467.635 36.3776 467.85 37.4316 468.115 38.7318C469.344 44.7675 471.654 56.1095 471.604 57.5566C471.569 58.5471 471.671 59.8452 471.799 61.4836C471.898 62.7547 472.013 64.2307 472.093 65.9266C472.147 67.0588 472.242 68.2373 472.339 69.4428C472.576 72.3704 472.825 75.4565 472.521 78.421C472.093 82.606 468.668 97.587 468.056 100.256C467.881 101.018 467.746 101.82 467.604 102.665C467.249 104.776 466.85 107.153 465.67 109.839C464.018 113.599 459.675 123.364 457.595 124.941C455.515 126.518 451.05 129.733 449.275 130.279C447.501 130.824 439.671 131.977 437.836 132.098C436.001 132.219 433.676 132.037 430.556 130.885C427.436 129.733 422.665 127.731 421.503 126.821C421.12 126.522 420.617 126.275 420.055 125.998C418.909 125.434 417.513 124.748 416.364 123.243C415.467 122.067 414.754 120.892 414.042 119.716C413.394 118.648 412.746 117.579 411.96 116.511C410.308 114.266 408.228 111.355 407.433 109.839C407.251 109.492 407.05 109.12 406.841 108.733C406.135 107.426 405.335 105.947 404.863 104.683C404.374 103.373 402.25 98.8208 401.249 96.7084C401.19 95.5393 400.608 93.8834 400.101 92.4434ZM428.401 30.3238C428.526 29.5578 429.89 27.9443 430.556 27.2332C431.314 26.6369 433.013 25.3784 433.744 25.1148C434.658 24.7854 435.738 24.6225 436.485 24.6225C437.146 24.6225 439.166 25.3277 440.488 25.7888C440.662 25.8498 440.825 25.9065 440.971 25.9568C442.217 26.387 443.961 28.9854 443.961 29.7266C443.961 30.2171 444.87 32.078 445.654 33.6817C446.054 34.5014 446.422 35.2539 446.619 35.7219C447.2 37.1053 447.699 40.5149 447.865 41.8325C448.031 43.1502 448.529 47.1855 448.529 49.4302C448.529 50.5352 448.791 51.6247 449.057 52.7312C449.331 53.8725 449.609 55.0317 449.609 56.2443V63.4914V69.8326V76.2561C449.609 77.9733 449.247 81.293 448.942 84.0867C448.72 86.1163 448.529 87.8683 448.529 88.5267C448.529 89.3692 447.879 91.9542 447.24 94.4953C446.692 96.6741 446.152 98.8207 446.037 99.8091C445.788 101.95 444.625 104.683 443.961 106.15C443.296 107.617 441.469 109.197 439.725 109.839C438.318 110.356 436.586 109.193 434.923 108.075C434.524 107.807 434.13 107.542 433.744 107.303C431.751 106.068 430.556 104.683 429.757 103.35C428.958 102.017 426.85 97.915 426.352 96.7084C425.853 95.5018 424.691 92.4797 424.026 89.7592C423.769 88.7064 423.537 87.4576 423.296 86.1613C422.914 84.1079 422.51 81.9356 421.95 80.2351C421.204 77.9703 421.288 74.6106 421.344 72.3778C421.357 71.8758 421.368 71.4307 421.368 71.0679C421.368 70.4796 421.339 69.786 421.306 69.0182C421.229 67.2064 421.135 64.9812 421.368 62.7502C421.7 59.5738 422.282 55.9149 422.863 53.2796C423.358 51.0357 423.613 48.9709 423.882 46.7802C423.929 46.3981 423.977 46.0121 424.026 45.6208C424.358 42.9855 426.103 36.2325 426.352 35.7219C426.601 35.2112 428.244 31.2813 428.401 30.3238Z" fill="white"/>
<path d="M290.609 131.188C291.486 130.971 292.983 131.098 293.623 131.188H299.157C300.637 131.188 302.609 131.46 304.966 131.84C307.322 132.221 307.048 131.188 307.486 130.754C307.925 130.319 308.692 127.603 308.692 126.407C308.692 125.212 308.966 119.508 308.692 117.606C308.418 115.704 309.24 109.348 308.692 106.74C308.144 104.132 308.363 95.7654 308.363 93.3206C308.363 90.8757 308.582 72.132 308.363 69.4698C308.144 66.8076 307.979 63.3305 307.979 61.592C307.979 59.8534 307.651 49.5851 307.979 47.7922C308.308 45.9993 307.979 41.2183 307.979 40.5664C307.979 39.9144 307.76 37.0349 307.322 36.6003C306.884 36.1657 304.637 35.4594 303.157 35.1877C301.678 34.9161 298.28 34.8618 296.965 34.8618H288.965H282.663C281.513 34.8618 280.362 37.0349 279.814 38.7735C279.266 40.512 279.814 43.9348 279.814 45.5104C279.814 47.0859 279.485 48.4985 279.485 49.9654V57.463C279.485 58.6582 279.814 68.4919 279.814 70.6651C279.814 72.8383 280.033 77.0216 280.362 78.7059C280.691 80.3901 280.088 85.6601 280.362 87.5616C280.636 89.4632 280.362 92.9402 280.362 94.5701V100.275V106.74C280.362 107.935 280.033 111.956 279.649 113.423C279.266 114.89 279.649 118.095 279.649 119.073V125.321C279.649 127.277 279.43 128.581 279.649 129.396C279.869 130.21 280.197 131.188 280.691 131.84C281.184 132.492 282.609 131.84 283.869 131.84C285.129 131.84 286.554 132.058 288.362 131.84C290.171 131.623 289.513 131.46 290.609 131.188Z" fill="white"/>
<path d="M279.156 26.8753H283.43C284.307 27.0383 286.225 27.3643 286.883 27.3643C287.705 27.3643 288.965 26.8753 290.718 26.8753C292.472 26.8753 296.965 27.3643 298.609 27.3643C300.253 27.3643 302.226 27.3099 305.185 27.3643C308.144 27.4186 307.322 25.4084 307.322 23.9958V16.5526V9.21812C307.322 7.37091 305.404 4.43707 304.692 4.43707C303.979 4.43707 300.363 4.05681 298.938 4.43707C297.513 4.81734 293.787 4.43707 291.979 4.43707H284.855H280.855C279.321 4.43707 278.608 6.06699 278.608 6.50163C278.608 6.93626 278.17 9.70709 278.17 11.0653V15.629C278.17 16.9329 278.608 18.8889 278.608 20.0298C278.608 21.1707 278.663 24.6477 278.608 25.1367C278.564 25.5279 278.955 26.4587 279.156 26.8753Z" fill="white"/>
</svg>
