<svg width="147" height="5" viewBox="0 0 147 5" fill="none" xmlns="http://www.w3.org/2000/svg">
<path d="M1 4L6.44496 1.40895C6.98868 1.15022 7.62002 1.15022 8.16373 1.40895L12.7493 3.59105C13.293 3.84978 13.9244 3.84978 14.4681 3.59105L19.0537 1.40895C19.5974 1.15022 20.2287 1.15022 20.7724 1.40895L25.358 3.59105C25.9017 3.84978 26.5331 3.84978 27.0768 3.59105L31.6624 1.40895C32.2061 1.15022 32.8374 1.15022 33.3811 1.40895L37.9667 3.59105C38.5104 3.84978 39.1418 3.84978 39.6855 3.59105L44.2711 1.40895C44.8148 1.15022 45.4461 1.15022 45.9898 1.40895L50.5754 3.59105C51.1191 3.84978 51.7505 3.84978 52.2942 3.59105L56.8797 1.40895C57.4235 1.15022 58.0548 1.15022 58.5985 1.40895L63.1841 3.59105C63.7278 3.84978 64.3591 3.84978 64.9029 3.59105L69.4884 1.40895C70.0322 1.15022 70.6635 1.15022 71.2072 1.40895L75.7928 3.59105C76.3365 3.84978 76.9678 3.84978 77.5116 3.59105L82.0971 1.40895C82.6408 1.15022 83.2722 1.15022 83.8159 1.40895L88.4015 3.59105C88.9452 3.84978 89.5765 3.84978 90.1203 3.59105L94.7058 1.40895C95.2495 1.15022 95.8809 1.15022 96.4246 1.40895L101.01 3.59105C101.554 3.84978 102.185 3.84978 102.729 3.59105L107.315 1.40895C107.858 1.15022 108.49 1.15022 109.033 1.40895L113.619 3.59105C114.163 3.84978 114.794 3.84978 115.338 3.59105L119.923 1.40895C120.467 1.15022 121.098 1.15022 121.642 1.40895L126.228 3.59105C126.771 3.84978 127.403 3.84978 127.946 3.59105L132.532 1.40895C133.076 1.15022 133.707 1.15022 134.251 1.40895L138.836 3.59105C139.38 3.84978 140.011 3.84978 140.555 3.59105L146 1" stroke="#83AE34"/>
</svg>
