<svg width="43" height="38" viewBox="0 0 43 38" fill="none" xmlns="http://www.w3.org/2000/svg">
<path d="M25.0262 19.8268L25.9518 20.3352C26.1465 20.4751 26.3052 20.6593 26.4146 20.8727C26.524 21.086 26.581 21.3224 26.581 21.5621C26.581 21.8019 26.524 22.0382 26.4146 22.2516C26.3052 22.4649 26.1465 22.6492 25.9518 22.7891L23.6269 24.0811M23.0434 12.9823C23.3905 12.6917 23.7992 12.406 24.2669 12.136C26.7343 10.7118 28.758 10.931 28.7808 12.3329L28.8687 17.6515C28.8451 17.8903 28.765 18.1199 28.6349 18.3215C28.5049 18.5231 28.3287 18.6908 28.1209 18.8108C27.9131 18.9307 27.6798 18.9995 27.4402 19.0113C27.2006 19.0231 26.9616 18.9777 26.743 18.8788L25.0262 17.8493M23.1338 26.4117L26.8175 24.2039C27.036 24.1051 27.2749 24.0597 27.5145 24.0716C27.754 24.0835 27.9873 24.1523 28.1949 24.2722C28.4026 24.3921 28.5788 24.5598 28.7088 24.7613C28.8388 24.9629 28.9189 25.1925 28.9426 25.4311L28.8547 30.7492C28.8318 32.1563 26.8087 32.3708 24.3413 30.9461C23.6237 30.5319 23.0454 30.0807 22.6155 29.6313M35.2019 30.9033C32.7345 32.3275 30.7108 32.1083 30.6873 30.7064L30.6 25.3883C30.6236 25.1495 30.7036 24.9198 30.8337 24.7181C30.9637 24.5165 31.1399 24.3487 31.3476 24.2287C31.5554 24.1086 31.7888 24.0399 32.0284 24.028C32.2681 24.0162 32.5071 24.0616 32.7257 24.1605L37.2871 26.8957C38.4945 27.6195 37.6693 29.4786 35.2019 30.9033ZM40.5944 21.4769C40.5944 24.3258 39.3929 25.9685 38.1668 25.2875L33.5169 22.7041C33.3222 22.5642 33.1636 22.3799 33.0542 22.1666C32.9448 21.9532 32.8877 21.7169 32.8877 21.4771C32.8877 21.2374 32.9448 21.0011 33.0542 20.7877C33.1636 20.5744 33.3222 20.3901 33.5169 20.2502L38.1668 17.6662C39.3976 16.9828 40.5944 18.6273 40.5944 21.4769ZM35.1275 12.0932C37.5948 13.5173 38.4165 15.3793 37.2139 16.1008L32.6513 18.836C32.4327 18.9348 32.1937 18.9801 31.9542 18.9682C31.7146 18.9563 31.4813 18.8875 31.2736 18.7675C31.0659 18.6475 30.8898 18.4797 30.7598 18.2781C30.6298 18.0765 30.5497 17.8469 30.5262 17.6082L30.6141 12.2901C30.6375 10.8829 32.6601 10.6684 35.1275 12.0932Z" stroke="white" stroke-linecap="round" stroke-linejoin="round"/>
<path d="M30.8133 21.5196C30.8133 22.1155 30.3303 22.5985 29.7344 22.5985C29.1386 22.5985 28.6555 22.1155 28.6555 21.5196C28.6555 20.9238 29.1386 20.4407 29.7344 20.4407C30.3303 20.4407 30.8133 20.9238 30.8133 21.5196Z" stroke="white" stroke-linecap="round" stroke-linejoin="round"/>
<path d="M21.6082 11.8891C23.802 10.036 26.6378 8.91895 29.7344 8.91895C36.6936 8.91895 42.3351 14.5604 42.3351 21.5196C42.3351 28.4787 36.6936 34.1202 29.7344 34.1202C26.8798 34.1202 24.2469 33.171 22.1341 31.5709" stroke="white" stroke-linecap="round" stroke-linejoin="round"/>
<path d="M4.01912 14.7013C-1.0391 22.6569 4.85397 28.1571 6.91655 29.2866C8.97912 30.4161 10.4033 33.3136 14.5284 36.3092C17.7456 38.6455 20.6019 35.4777 21.714 33.4667C21.77 33.3654 21.8042 33.2574 21.8203 33.1428C22.2775 29.8714 23.3746 23.3205 24.3011 21.9694C25.4797 20.2506 26.2177 14.2212 19.661 10.8026M4.01912 14.7013C3.77655 14.6905 3.40785 14.6567 2.99423 14.5902C2.16097 14.4562 2.14568 13.4478 2.82183 12.9427C3.28923 12.5936 3.7289 12.1753 4.01912 11.7049C4.90797 10.2643 7.32941 8.27197 10.6704 9.1915M4.01912 14.7013C4.40736 14.6935 5.47195 14.4022 6.62443 13.2988M10.6704 9.1915C9.68754 7.77927 8.48191 4.39577 10.9237 1.51792C11.2356 1.15034 11.7905 1.1188 12.0913 1.49546C12.3412 1.80831 12.5573 2.19879 12.5707 2.60152C12.6014 3.52105 11.2834 6.21835 11.7432 8.45588M10.6704 9.1915L11.7432 8.45588M11.7432 8.45588C12.489 8.1698 14.4221 7.62217 16.1876 7.72025V7.72025C16.8787 7.75865 18.0157 8.35275 17.5844 8.89407C17.3807 9.14967 17.1323 9.41344 16.8313 9.68193M16.8313 9.68193C15.409 8.75013 14.1748 9.47759 13.7355 9.95779M16.8313 9.68193C17.3481 9.95044 18.2919 10.2895 19.1081 10.2123C19.3835 10.1863 19.8174 10.5744 19.661 10.8026V10.8026M6.62443 13.2988C6.60988 13.6772 6.53015 14.0146 6.41508 14.3084C6.13773 15.0166 6.31452 16.0146 7.03661 15.776C7.71235 15.5527 8.41479 14.9271 8.89261 13.544C9.82441 10.8467 12.5094 11.1941 13.7355 11.7049C16.9012 13.2593 18.7687 12.1051 19.661 10.8026M6.62443 13.2988C6.67347 12.0237 7.48266 11.2349 7.88113 10.9999M5.39839 19.7595C5.39839 20.267 5.39839 21.3506 5.39839 21.6256M7.46518 23.8789C7.52602 24.3378 7.69437 25.3128 7.88113 25.5413M10.894 27.6713C11.177 28.1508 11.7432 29.145 11.7432 29.2866M14.5284 31.23C14.685 31.6369 15.0449 32.5028 15.2319 32.7106M15.5436 26.2946C15.6699 26.7362 15.9754 27.7129 16.1876 28.0869M16.9463 21.6256C17.0069 21.9265 17.1957 22.6632 17.4658 23.2035M12.2967 22.8658C12.2889 23.3248 12.3329 24.3153 12.5707 24.6062M9.30945 18.9176C9.33543 19.3505 9.42375 20.3047 9.56921 20.6579M13.7355 18.0084C13.635 18.4052 13.4943 19.3109 13.7355 19.7595M17.9671 15.6282C17.8261 16.3235 17.6895 17.8718 18.2719 18.5036M19.3643 28.0869C19.661 28.8306 19.1192 30.9565 19.661 31.23M17.4658 31.23C17.7345 32.0501 18.2719 33.7511 18.2719 33.9941M20.7615 21.298L21.4905 23.2035M19.3643 24.6062L20.2029 26.2946M12.0345 13.544C12.0942 14.0901 12.2849 15.2716 12.5707 15.6282" stroke="white" stroke-linecap="round"/>
</svg>
