<svg width="32" height="32" viewBox="0 0 32 32" fill="none" xmlns="http://www.w3.org/2000/svg">
<path d="M19.4431 27.5114C19.1613 28.0945 17.9916 29.6376 15.963 30.4608L16.5777 29.046C15.9288 29.389 14.1546 29.9721 12.2489 29.5605L12.8636 28.5315C11.9756 29.0374 9.55421 29.6428 6.97226 28.017L8.07368 27.1939C6.89541 26.9624 4.25199 26.0106 3.10446 24.0556L4.51326 23.7469C3.73628 23.1724 1.9518 21.3957 1.02968 18.885L2.77147 18.3706C1.86642 17.213 0.312469 14.2187 1.33705 11.5023M1.33705 11.5023C2.69397 10.8209 5.89588 10.0112 8.91187 11.5023M1.33705 11.5023L6.00409 15.2201M25.4916 1.00692C22.049 0.862862 19.4295 3.00481 18.55 4.09379L17.6535 2.62753C15.4609 3.32722 13.632 6.33177 12.9917 7.74659C12.8892 7.45848 12.6416 6.52899 12.5306 6.10026C11.0757 6.90284 10.3022 10.5162 10.0972 12.2226C9.70854 11.9382 9.31184 11.7 8.91187 11.5023M25.4916 1.00692C26.4479 2.08732 28.258 5.06101 27.8481 8.31251L29.5643 7.92665C29.7948 9.35005 30.0151 12.6701 29.052 14.5634L30.4608 14.0232C30.2474 15.3009 29.344 18.2728 27.4383 19.9397L28.591 20.3256C28.0189 21.3202 26.2037 23.4588 23.5193 24.0556L24.3389 24.57C24.0572 25.1617 22.8021 26.3964 20.0357 26.6022L20.9066 27.6826C19.8385 27.7252 17.1747 27.2268 15.0108 24.9036M25.4916 1.00692L22.9777 6.73868M8.89335 17.5217C7.93024 18.4066 9.29464 21.0973 10.0972 22.3321H8.89335C10.8196 25.0897 13.743 25.1617 14.964 24.853C14.9796 24.87 14.9952 24.8868 15.0108 24.9036M8.89335 17.5217L9.63617 17.9847C9.23869 16.3984 8.53735 12.8811 8.91187 11.5023M8.89335 17.5217L6.00409 15.2201M15.0108 24.9036L15.8625 22.9617M6.00409 15.2201C5.96821 14.461 5.78374 12.7988 5.33292 12.2226M6.00409 15.2201C5.50715 15.3185 4.1649 15.5152 2.77147 15.5152M3.89851 18.1648C4.96578 18.1048 7.1823 17.9384 7.51016 17.7532M4.51326 21.2259C5.42684 21.1659 7.41795 20.9893 8.07368 20.7629M5.61468 24.0556C6.4685 24.0813 8.24786 24.0556 8.53475 23.7469M9.09827 26.6022C9.77278 26.5336 11.296 26.2884 11.9927 25.8562M13.837 28.2228C14.3407 28.0771 15.4097 27.6672 15.6556 27.1939M10.712 18.885C11.6952 20.2651 14.1019 23.0126 15.8625 22.9617M15.8625 22.9617C16.8181 23.4851 19.4261 24.375 22.2129 23.7469M15.8625 22.9617L17.1879 19.9397M10.9937 13.483C11.9384 15.4295 14.4998 19.4458 17.1879 19.9397M17.1879 19.9397C18.4018 20.5828 21.8646 21.5192 26.0039 20.1198M17.1879 19.9397L18.4562 17.0481M13.2478 9.03278C13.7317 11.0922 15.4507 15.5785 18.4562 17.0481M18.4562 17.0481C19.4693 17.5146 22.7662 17.8612 27.8481 15.5152M18.4562 17.0481L19.8945 13.7685M15.8625 7.00059C16.3569 8.94012 17.8554 13.009 19.8945 13.7685M19.8945 13.7685C21.1967 14.0592 24.5285 14.1261 27.4383 12.0682M19.8945 13.7685L21.3223 10.513M18.9855 5.32854C19.2029 6.65833 19.9746 9.55694 21.3223 10.513M21.3223 10.513C22.1742 10.5598 24.4465 10.2881 26.7211 8.82699M21.3223 10.513L22.9777 6.73868M21.6238 3.55359C21.8092 4.52798 22.3396 6.52914 22.9777 6.73868M22.9777 6.73868C23.5851 6.62019 25.0408 6.23402 26.0039 5.63722" stroke="white" stroke-linecap="round"/>
</svg>
