<svg width="30" height="32" viewBox="0 0 30 32" fill="none" xmlns="http://www.w3.org/2000/svg">
<path fill-rule="evenodd" clip-rule="evenodd" d="M11.8972 12.4246H3.21997C2.1154 12.4246 1.21997 13.32 1.21997 14.4246V23.0971C1.21997 24.2016 2.1154 25.0971 3.21997 25.0971H11.8972C13.0018 25.0971 13.8972 24.2016 13.8972 23.0971V14.4246C13.8972 13.32 13.0018 12.4246 11.8972 12.4246ZM3.21997 11.4246C1.56312 11.4246 0.219971 12.7677 0.219971 14.4246V23.0971C0.219971 24.7539 1.56311 26.0971 3.21997 26.0971H11.8972C13.5541 26.0971 14.8972 24.7539 14.8972 23.0971V14.4246C14.8972 12.7677 13.5541 11.4246 11.8972 11.4246H3.21997Z" fill="white"/>
<path fill-rule="evenodd" clip-rule="evenodd" d="M6.55975 11.5878C5.59302 9.91396 6.1665 7.7737 7.84066 6.80743L15.355 2.47045C17.0291 1.50419 19.17 2.07784 20.1367 3.75172L24.4742 11.262C25.4411 12.9362 24.8672 15.0769 23.1924 16.0429L15.0256 20.7534L14.5258 19.8873L22.6926 15.1768C23.8888 14.4868 24.2988 12.9578 23.6081 11.7619L19.2706 4.2516C18.5801 3.05597 17.0509 2.64622 15.8551 3.33641L8.34078 7.67339C7.14495 8.36358 6.73532 9.89234 7.42585 11.088L7.5622 11.3241L6.6961 11.8239L6.55975 11.5878Z" fill="white"/>
<path fill-rule="evenodd" clip-rule="evenodd" d="M19.5649 19.103C19.7398 18.8893 20.0548 18.8579 20.2685 19.0328L21.3402 19.9099L22.4118 19.0328C22.6255 18.8579 22.9405 18.8893 23.1154 19.103C23.2903 19.3167 23.2589 19.6317 23.0452 19.8066L21.8402 20.793V22.439L23.2541 21.6425L23.6498 20.0272C23.7155 19.759 23.9862 19.5949 24.2544 19.6606C24.5226 19.7263 24.6868 19.997 24.6211 20.2652L24.2839 21.6418L25.5965 22.0745C25.8587 22.161 26.0012 22.4437 25.9148 22.706C25.8283 22.9682 25.5456 23.1107 25.2834 23.0243L23.7413 22.5159L22.323 23.3148L23.753 24.1997L25.4509 23.6394C25.7132 23.5529 25.9959 23.6953 26.0824 23.9576C26.169 24.2198 26.0266 24.5025 25.7643 24.5891L24.2849 25.0773L24.6208 26.4345C24.6871 26.7026 24.5236 26.9737 24.2556 27.04C23.9875 27.1064 23.7164 26.9428 23.6501 26.6748L23.2518 25.0656L21.8402 24.192V25.8259L23.082 27.0673C23.2773 27.2625 23.2773 27.5791 23.0821 27.7744C22.8869 27.9697 22.5703 27.9698 22.375 27.7745L21.3402 26.74L20.3053 27.7745C20.11 27.9698 19.7934 27.9697 19.5982 27.7744C19.403 27.5791 19.403 27.2625 19.5983 27.0673L20.8402 25.8259V24.2037L19.2861 25.1892L18.9584 26.6632C18.8985 26.9327 18.6314 27.1027 18.3618 27.0428C18.0923 26.9828 17.9223 26.7157 17.9822 26.4462L18.2595 25.1991L16.8658 24.6964C16.606 24.6027 16.4714 24.3161 16.5651 24.0564C16.6588 23.7966 16.9453 23.662 17.2051 23.7557L18.7822 24.3246L20.3453 23.3334L18.7949 22.5122L17.1876 23.0257C16.9245 23.1097 16.6432 22.9646 16.5591 22.7016C16.4751 22.4385 16.6202 22.1572 16.8832 22.0731L18.2377 21.6404L17.8752 20.2745C17.8044 20.0076 17.9634 19.7338 18.2303 19.663C18.4972 19.5921 18.771 19.7511 18.8418 20.018L19.2702 21.6324L20.8402 22.4639V20.793L19.6351 19.8066C19.4214 19.6317 19.39 19.3167 19.5649 19.103Z" fill="white"/>
<path fill-rule="evenodd" clip-rule="evenodd" d="M28.3395 23.0664C28.3395 19.641 26.0753 16.8077 22.9066 16.0171L23.1486 15.0469C26.7652 15.9492 29.3395 19.1845 29.3395 23.0664C29.3395 27.6499 25.6227 31.3652 21.0382 31.3652C17.5547 31.3652 14.5734 29.2204 13.3416 26.1813L14.2683 25.8057C15.3524 28.4802 17.9756 30.3652 21.0382 30.3652C25.0707 30.3652 28.3395 27.0973 28.3395 23.0664Z" fill="white"/>
<path fill-rule="evenodd" clip-rule="evenodd" d="M4.26802 13.1541C4.46325 13.3494 4.4632 13.6659 4.26791 13.8612L2.46604 15.6625C2.27075 15.8577 1.95417 15.8576 1.75894 15.6623C1.56371 15.467 1.56376 15.1505 1.75905 14.9552L3.56092 13.154C3.75621 12.9587 4.07279 12.9588 4.26802 13.1541ZM6.47675 13.1541C6.67198 13.3494 6.67193 13.6659 6.47664 13.8612L2.46604 17.8705C2.27075 18.0657 1.95417 18.0656 1.75894 17.8704C1.56371 17.6751 1.56376 17.3585 1.75905 17.1632L5.76965 13.154C5.96494 12.9587 6.28152 12.9588 6.47675 13.1541Z" fill="white"/>
<path fill-rule="evenodd" clip-rule="evenodd" d="M12.8809 20.947C13.1571 20.947 13.3809 21.1709 13.3809 21.447V22.9722C13.3809 23.8007 12.7094 24.4722 11.8809 24.4722H10.3557C10.0796 24.4722 9.85571 24.2484 9.85571 23.9722C9.85571 23.6961 10.0796 23.4722 10.3557 23.4722H11.8809C12.1571 23.4722 12.3809 23.2484 12.3809 22.9722V21.447C12.3809 21.1709 12.6048 20.947 12.8809 20.947Z" fill="white"/>
<path fill-rule="evenodd" clip-rule="evenodd" d="M14.8779 5.15072C14.7398 4.91157 14.8218 4.60578 15.0609 4.46771L16.3818 3.7051C17.0992 3.29089 18.0166 3.5367 18.4308 4.25414L19.1934 5.57501C19.3315 5.81416 19.2496 6.11995 19.0104 6.25802C18.7713 6.39609 18.4655 6.31416 18.3274 6.07501L17.5648 4.75414C17.4267 4.51499 17.1209 4.43305 16.8818 4.57113L15.5609 5.33373C15.3218 5.4718 15.016 5.38987 14.8779 5.15072Z" fill="white"/>
</svg>
