<svg width="31" height="31" viewBox="0 0 31 31" fill="none" xmlns="http://www.w3.org/2000/svg">
<path d="M21.9549 26.5565C19.0705 28.2214 16.7047 27.9651 16.6773 26.3263L16.5752 20.1094C16.6028 19.8302 16.6964 19.5617 16.8484 19.3259C17.0004 19.0902 17.2063 18.894 17.4492 18.7537C17.6921 18.6134 17.9649 18.533 18.2451 18.5192C18.5253 18.5053 18.8047 18.5584 19.0602 18.674L24.3926 21.8716C25.804 22.7177 24.8393 24.8909 21.9549 26.5565V26.5565ZM28.2589 15.5368C28.2589 18.8672 26.8543 20.7877 25.421 19.9915L19.9852 16.9715C19.7576 16.8079 19.5721 16.5925 19.4442 16.3431C19.3163 16.0937 19.2496 15.8174 19.2496 15.5371C19.2496 15.2568 19.3163 14.9806 19.4442 14.7312C19.5721 14.4818 19.7576 14.2664 19.9852 14.1028L25.421 11.082C26.8598 10.2832 28.2595 12.2057 28.2595 15.5368H28.2589ZM21.8679 4.56709C24.7523 6.23197 25.7129 8.40865 24.307 9.25205L18.9732 12.4496C18.7177 12.5651 18.4383 12.6181 18.1583 12.6041C17.8782 12.5902 17.6055 12.5098 17.3627 12.3695C17.1199 12.2292 16.914 12.0331 16.7621 11.7974C16.6101 11.5617 16.5165 11.2933 16.4889 11.0142L16.5917 4.7973C16.6191 3.15229 18.9835 2.90153 21.8679 4.56709ZM9.17168 4.61711C12.0561 2.95223 14.4219 3.20847 14.4486 4.84731L14.5514 11.0649C14.5237 11.344 14.43 11.6125 14.278 11.8482C14.126 12.0838 13.92 12.2799 13.6771 12.4201C13.4343 12.5603 13.1615 12.6407 12.8814 12.6545C12.6012 12.6683 12.3219 12.6152 12.0664 12.4996L6.73397 9.30206C5.32259 8.45592 6.28726 6.28267 9.17168 4.61711V4.61711ZM2.86775 15.6368C2.86775 12.3064 4.27228 10.3859 5.70558 11.1821L11.1414 14.2021C11.3691 14.3657 11.5545 14.5811 11.6824 14.8305C11.8103 15.0799 11.877 15.3562 11.877 15.6365C11.877 15.9168 11.8103 16.193 11.6824 16.4424C11.5545 16.6919 11.3691 16.9072 11.1414 17.0708L5.70558 20.0916C4.2668 20.8904 2.86707 18.9679 2.86707 15.6368H2.86775ZM9.25869 26.6065C6.37427 24.9416 5.41371 22.765 6.81961 21.9216L12.1534 18.7247C12.4089 18.6092 12.6882 18.5562 12.9682 18.5701C13.2482 18.584 13.5209 18.6644 13.7637 18.8046C14.0065 18.9448 14.2124 19.1408 14.3643 19.3764C14.5163 19.612 14.61 19.8804 14.6377 20.1594L14.5349 26.3763C14.5082 28.0213 12.1431 28.2721 9.25869 26.6065Z" stroke="white" stroke-linecap="round" stroke-linejoin="round"/>
<path d="M15.5637 17.4326C16.583 17.4326 17.4094 16.6062 17.4094 15.5868C17.4094 14.5675 16.583 13.7411 15.5637 13.7411C14.5443 13.7411 13.7179 14.5675 13.7179 15.5868C13.7179 16.6062 14.5443 17.4326 15.5637 17.4326Z" stroke="white" stroke-linecap="round" stroke-linejoin="round"/>
<path d="M15.5633 30.3169C23.6987 30.3169 30.2937 23.7219 30.2937 15.5865C30.2937 7.45111 23.6987 0.856079 15.5633 0.856079C7.42791 0.856079 0.832886 7.45111 0.832886 15.5865C0.832886 23.7219 7.42791 30.3169 15.5633 30.3169Z" stroke="white" stroke-linecap="round" stroke-linejoin="round"/>
</svg>
