<svg width="27" height="35" viewBox="0 0 27 35" fill="none" xmlns="http://www.w3.org/2000/svg">
<path d="M11.618 32.1527L11.693 33.5264C11.722 34.0567 12.1605 34.4718 12.6916 34.4718H23.3866C23.9193 34.4718 24.3585 34.0542 24.3853 33.5222L24.4544 32.1527M11.618 32.1527H24.4544M11.618 32.1527L10.8156 17.466M24.4544 32.1527L25.3322 14.7478M10.8156 17.466C11.8139 16.1412 14.3518 13.8512 16.5162 15.2887C18.222 16.4217 20.0148 17.6265 21.9054 17.2805M10.8156 17.466L10.6966 15.2887M25.3322 14.7478L25.465 12.1139C25.4939 11.5426 25.0384 11.0636 24.4663 11.0636H15.0405M25.3322 14.7478C24.1549 16.3423 23.0133 17.0777 21.9054 17.2805M14.3026 19.271C14.8142 19.1933 15.3356 19.2386 15.5324 19.271M21.4844 20.9222L22.9601 20.0966M17.3032 23.8361C17.8443 23.9818 17.8935 25.2445 19.0249 24.7588M14.3026 28.4983C14.7453 28.2555 15.7193 27.7504 16.0735 27.6727M20.8941 28.4983C21.2876 28.5469 22.1632 28.5469 22.5174 28.1584M21.9054 17.2805L23.3334 7.4618C23.3772 7.16 23.5565 6.89472 23.8201 6.74136L26.1575 5.38147M6.43213 19.7081L8.1134 17.9657L10.6966 15.2887M10.6966 15.2887L10.5812 13.1761L10.5234 12.1181C10.4921 11.5452 10.9482 11.0636 11.5219 11.0636H12.7531H15.0405M15.0405 11.0636L17.0327 9.02383L19.0249 6.98411" stroke="white" stroke-linecap="round"/>
<path d="M19.0898 7.02592C18.2618 6.20846 17.2774 5.56142 16.1928 5.12176C15.1082 4.68209 13.9446 4.45841 12.7685 4.46348C11.5924 4.46855 10.4268 4.70227 9.33829 5.1513C8.24975 5.60033 7.25959 6.25588 6.42433 7.08051C5.58908 7.90514 4.92509 8.88271 4.47027 9.9574C4.01546 11.0321 3.77872 12.1829 3.77359 13.344C3.76845 14.5051 3.99502 15.6539 4.44035 16.7247C4.88568 17.7955 5.54105 18.7674 6.36904 19.5849" stroke="white"/>
<path d="M17.4642 8.41383C16.8246 7.78237 16.0653 7.28148 15.2297 6.93973C14.394 6.59799 13.4983 6.4221 12.5938 6.4221M12.5938 6.4221C11.6893 6.4221 10.7937 6.59799 9.95799 6.93974C9.12232 7.28148 8.36302 7.78238 7.72343 8.41383M12.5938 6.4221L12.5938 10.9469M7.72343 8.41383C7.08384 9.04529 6.57649 9.79493 6.23034 10.62C5.8842 11.445 5.70604 12.3293 5.70604 13.2223M7.72343 8.41383L10.6729 11.3558M5.70604 13.2223C5.70604 14.1153 5.8842 14.9996 6.23034 15.8246C6.57649 16.6496 7.08384 17.3993 7.72343 18.0307M5.70604 13.2223L10.561 13.2223" stroke="white"/>
</svg>
