<svg width="28" height="40" viewBox="0 0 28 40" fill="none" xmlns="http://www.w3.org/2000/svg">
<path d="M4.09898 4.1005C6.72351 1.475 10.2831 0 13.9948 0C17.7064 0 21.2661 1.475 23.8906 4.1005C26.5151 6.72601 27.9896 10.287 27.9896 14C27.9896 24.5 13.9948 40 13.9948 40C13.9948 40 0 24.5 0 14C0 10.287 1.47445 6.72601 4.09898 4.1005Z" fill="url(#paint0_linear_551_174)"/>
<path d="M6.9967 16.3765C6.92336 16.3765 6.86336 16.3531 6.8167 16.3065C6.77003 16.2598 6.7467 16.1998 6.7467 16.1265V9.62646C6.7467 9.55313 6.77003 9.49313 6.8167 9.44646C6.86336 9.3998 6.92336 9.37646 6.9967 9.37646H11.4567C11.53 9.37646 11.59 9.3998 11.6367 9.44646C11.6834 9.49313 11.7067 9.55313 11.7067 9.62646V10.4765C11.7067 10.5498 11.6834 10.6098 11.6367 10.6565C11.59 10.7031 11.53 10.7265 11.4567 10.7265H8.3067V12.4165H11.2567C11.33 12.4165 11.39 12.4398 11.4367 12.4865C11.4834 12.5331 11.5067 12.5931 11.5067 12.6665V13.5165C11.5067 13.5831 11.4834 13.6398 11.4367 13.6865C11.39 13.7331 11.33 13.7565 11.2567 13.7565H8.3067V16.1265C8.3067 16.1998 8.28336 16.2598 8.2367 16.3065C8.19003 16.3531 8.13003 16.3765 8.0567 16.3765H6.9967ZM12.9114 12.8765C12.8381 12.8765 12.7781 12.8531 12.7314 12.8065C12.6847 12.7598 12.6614 12.6998 12.6614 12.6265V11.5565C12.6614 11.4831 12.6847 11.4231 12.7314 11.3765C12.7781 11.3298 12.8381 11.3065 12.9114 11.3065H14.0314C14.1047 11.3065 14.1647 11.3298 14.2114 11.3765C14.2581 11.4231 14.2814 11.4831 14.2814 11.5565V12.6265C14.2814 12.6998 14.2581 12.7598 14.2114 12.8065C14.1647 12.8531 14.1047 12.8765 14.0314 12.8765H12.9114ZM12.9114 16.3765C12.8381 16.3765 12.7781 16.3531 12.7314 16.3065C12.6847 16.2598 12.6614 16.1998 12.6614 16.1265V15.0565C12.6614 14.9831 12.6847 14.9231 12.7314 14.8765C12.7781 14.8298 12.8381 14.8065 12.9114 14.8065H14.0314C14.1047 14.8065 14.1647 14.8298 14.2114 14.8765C14.2581 14.9231 14.2814 14.9831 14.2814 15.0565V16.1265C14.2814 16.1998 14.2581 16.2598 14.2114 16.3065C14.1647 16.3531 14.1047 16.3765 14.0314 16.3765H12.9114ZM15.8834 16.3765C15.8101 16.3765 15.7501 16.3531 15.7034 16.3065C15.6567 16.2598 15.6334 16.1998 15.6334 16.1265V9.62646C15.6334 9.55313 15.6567 9.49313 15.7034 9.44646C15.7501 9.3998 15.8101 9.37646 15.8834 9.37646H18.3934C19.0601 9.37646 19.6167 9.48313 20.0634 9.69646C20.5101 9.90313 20.8501 10.2098 21.0834 10.6165C21.3234 11.0165 21.4501 11.5131 21.4634 12.1065C21.4701 12.3998 21.4734 12.6565 21.4734 12.8765C21.4734 13.0965 21.4701 13.3498 21.4634 13.6365C21.4434 14.2565 21.3201 14.7698 21.0934 15.1765C20.8667 15.5831 20.5334 15.8865 20.0934 16.0865C19.6534 16.2798 19.1034 16.3765 18.4434 16.3765H15.8834ZM17.2234 15.0865H18.3934C18.7267 15.0865 19.0001 15.0365 19.2134 14.9365C19.4267 14.8365 19.5834 14.6798 19.6834 14.4665C19.7901 14.2465 19.8468 13.9631 19.8534 13.6165C19.8601 13.4231 19.8634 13.2498 19.8634 13.0965C19.8701 12.9431 19.8701 12.7898 19.8634 12.6365C19.8634 12.4831 19.8601 12.3131 19.8534 12.1265C19.8401 11.6265 19.7101 11.2598 19.4634 11.0265C19.2234 10.7865 18.8501 10.6665 18.3434 10.6665H17.2234V15.0865Z" fill="white"/>
<defs>
<linearGradient id="paint0_linear_551_174" x1="0" y1="20" x2="27.9896" y2="20" gradientUnits="userSpaceOnUse">
<stop stop-color="#FF0600"/>
<stop offset="1" stop-color="#1E612E"/>
</linearGradient>
</defs>
</svg>
